<svg width="80" height="80" viewBox="0 0 80 80" fill="none" xmlns="http://www.w3.org/2000/svg">
<path d="M22.785 20.5513C25.2875 20.5513 27.3163 18.5225 27.3163 16.02C27.3163 12.7913 22.785 7.73877 22.785 7.73877C22.785 7.73877 18.2538 12.7913 18.2538 16.02C18.2538 18.5225 20.2825 20.5513 22.785 20.5513Z" fill="#1E212D"/>
<path d="M14.7363 12.7838C14.7363 10.8175 11.975 7.73877 11.975 7.73877C11.975 7.73877 9.21503 10.8175 9.21503 12.7838C9.21503 14.3088 10.4513 15.545 11.975 15.545C13.4988 15.545 14.7363 14.3088 14.7363 12.7838Z" fill="#1E212D"/>
<path d="M43.5813 11.34V11.0225C43.5813 9.82626 42.5875 8.85626 41.3625 8.85626C40.1363 8.85626 39.1425 9.82626 39.1425 11.0225V11.3425C35.7063 11.6013 32.45 12.4763 29.445 13.8138C29.6763 14.5625 29.8175 15.3075 29.8175 16.0188C29.8175 19.8963 26.6638 23.05 22.7863 23.05C21.3213 23.05 19.9613 22.5988 18.8338 21.83C14.6263 26.8638 12.05 33.3088 11.9825 40.3688C12.06 36.3788 15.3138 33.1638 19.3225 33.1638C23.3825 33.1638 26.6725 36.4538 26.6725 40.5113C26.6725 36.4538 29.9625 33.1638 34.02 33.1638C35.5525 33.1638 36.9738 33.6338 38.1513 34.435V63.6438C38.1513 68.3225 41.9 72.1425 46.5525 72.2575L46.7675 72.26V72.2575C51.42 72.1425 55.1688 68.3238 55.1688 63.6438C55.1688 61.9175 53.77 60.5188 52.0438 60.5188C50.3175 60.5188 48.9188 61.9175 48.9188 63.6438C48.9188 64.9125 47.915 65.9513 46.66 66.0075C45.405 65.9513 44.4013 64.9125 44.4013 63.6438V34.575C45.6138 33.6925 47.1025 33.165 48.7175 33.165C52.7763 33.165 56.0663 36.455 56.0663 40.5125C56.0663 36.455 59.3563 33.165 63.415 33.165C67.4738 33.165 70.7638 36.455 70.7638 40.5125C70.7638 40.5613 70.7875 40.655 70.7875 40.655C70.785 25.1563 58.7925 12.4675 43.5813 11.34Z" fill="#1E212D"/>
</svg>
