<svg width="75" height="75" viewBox="0 0 75 75" fill="none" xmlns="http://www.w3.org/2000/svg">
<g clip-path="url(#clip0_32_381)">
<path d="M29.4519 52.4535C29.7072 51.7725 30.4733 51.432 31.165 51.6874C31.846 51.9428 32.1971 52.7089 31.9417 53.3899L30.3138 57.6994C30.0584 58.3804 29.2923 58.7314 28.6113 58.4655C27.9197 58.2101 27.5792 57.444 27.8346 56.763L29.4519 52.4535ZM55.2653 52.4641C55.5207 51.7831 56.2762 51.432 56.9678 51.6874C57.6488 51.9428 57.9998 52.7089 57.7445 53.3899L54.7758 61.3914C54.5204 62.0724 53.7543 62.4235 53.0733 62.1681C52.3817 61.9127 52.0307 61.1466 52.286 60.4656L55.2653 52.4641ZM20.6417 52.4641C20.897 51.7831 21.6632 51.432 22.3442 51.6874C23.0251 51.9428 23.3763 52.7089 23.1209 53.3899L20.1522 61.3914C19.8969 62.0724 19.1308 62.4235 18.4498 62.1681C17.7582 61.9127 17.4177 61.1466 17.673 60.4656L20.6417 52.4641ZM38.7622 52.4641C39.0175 51.7831 39.7836 51.432 40.4646 51.6874C41.1563 51.9428 41.4968 52.7089 41.2414 53.3899L38.2727 61.3914C38.0174 62.0724 37.2513 62.4235 36.5703 62.1681C35.8893 61.9127 35.5382 61.1466 35.7935 60.4656L38.7622 52.4641ZM47.3172 52.4535C47.5831 51.7725 48.3492 51.432 49.0302 51.6874C49.7112 51.9428 50.0623 52.7089 49.8069 53.3899L48.1896 57.6994C47.9236 58.3804 47.1575 58.7314 46.4765 58.4655C45.7955 58.2101 45.4443 57.444 45.6997 56.763L47.3172 52.4535Z" fill="#1E212D"/>
<path fill-rule="evenodd" clip-rule="evenodd" d="M16.5239 30.6942C16.6303 29.0982 16.9601 27.5766 17.4921 26.1402C16.9708 27.5766 16.6303 29.0982 16.5239 30.6942ZM37.0065 15.9786C38.4962 13.7548 41.0392 12.2864 43.9334 12.2864C48.1468 12.2864 51.6262 15.4147 52.1798 19.4899C52.6905 19.4154 53.2012 19.3835 53.7225 19.3835C60.1597 19.3835 65.3738 24.5973 65.3738 31.0347C65.3738 32.918 64.9265 34.695 64.1393 36.2591C63.2669 35.8015 62.2666 35.5355 61.2028 35.5355C60.5006 30.0558 55.8078 25.8209 50.1368 25.8209C49.4558 25.8209 48.7854 25.8848 48.1256 26.0018C46.2741 21.1073 42.1351 17.3299 37.0065 15.9786Z" fill="#2A3357"/>
<path fill-rule="evenodd" clip-rule="evenodd" d="M16.6835 48.1445C11.8634 48.1445 7.95837 44.2394 7.95837 39.4193C7.95837 34.6524 11.7783 30.7794 16.5239 30.6942C17.0984 22.1713 24.1849 15.4466 32.8355 15.4466C39.8262 15.4466 45.7954 19.8304 48.1256 26.0018C48.7854 25.8848 49.4558 25.8209 50.1368 25.8209C55.8078 25.8209 60.5006 30.0558 61.2028 35.5356C64.6822 35.5356 67.5018 38.3659 67.5018 41.8346C67.5018 45.2715 64.7673 48.0594 61.3624 48.1445C46.4659 48.3465 31.5693 48.1445 16.6835 48.1445Z" fill="#1E212D"/>
</g>
<defs>
<clipPath id="clip0_32_381">
<rect width="75" height="75" fill="white"/>
</clipPath>
</defs>
</svg>
