<svg width="75" height="75" viewBox="0 0 75 75" fill="none" xmlns="http://www.w3.org/2000/svg">
<path d="M64.3468 48.6575L55.4351 46.8331L60.814 45.3968C62.7474 44.8781 63.8972 42.8941 63.3782 40.9536C62.8633 39.0204 60.8793 37.8707 58.9353 38.3893L53.4658 39.851C53.6002 39.0132 53.7235 38.1681 53.7235 37.2904C53.7235 36.4126 53.6002 35.5639 53.4658 34.7261L58.9426 36.1914C59.2583 36.2748 59.5739 36.3147 59.8854 36.3147C61.4853 36.3147 62.954 35.2447 63.3856 33.6271C63.9041 31.6938 62.7548 29.7026 60.8213 29.184L55.4425 27.7441L64.3468 25.9233C65.1304 25.7637 65.8702 25.3574 66.4399 24.7155C67.8396 23.1341 67.6983 20.7185 66.1169 19.3185C64.5354 17.9185 62.1198 18.0599 60.7196 19.6413L54.6879 26.4383L56.1317 21.0739C56.654 19.1407 55.5041 17.1495 53.5712 16.6272C51.6451 16.1122 49.6463 17.2547 49.1241 19.1879L47.648 24.6901C46.3206 23.6056 44.8516 22.717 43.2267 22.0895L47.2238 18.0925C48.6419 16.6744 48.6419 14.3821 47.2238 12.964C45.8055 11.5458 43.5133 11.5458 42.0951 12.964L38.1561 16.9029L41.0324 8.2742C41.2826 7.51614 41.3044 6.67467 41.0324 5.85496C40.365 3.85286 38.1997 2.76839 36.1976 3.43938C34.1954 4.10676 33.1146 6.26848 33.7783 8.2742L36.6546 16.9029L32.7156 12.964C31.2975 11.5458 29.0052 11.5458 27.587 12.964C26.1688 14.3821 26.1688 16.6744 27.587 18.0925L31.584 22.0895C29.9627 22.717 28.4902 23.6093 27.1627 24.6901L25.6937 19.1952C25.1751 17.2583 23.1657 16.1049 21.2543 16.6272C19.3174 17.1459 18.1677 19.1299 18.6863 21.0667L20.1226 26.4528L14.0945 19.6449C13.565 19.0501 12.8432 18.6112 11.9981 18.4371C9.93069 18.0127 7.91043 19.3439 7.4861 21.4113C7.06173 23.4787 8.39646 25.5025 10.4675 25.9269L19.3682 27.7513L14.0002 29.1876C12.067 29.7063 10.9172 31.6938 11.4359 33.6307C11.8675 35.252 13.3328 36.3183 14.936 36.3183C15.2479 36.3183 15.5635 36.2784 15.879 36.195L21.3485 34.7297C21.2071 35.5675 21.0838 36.4162 21.0838 37.2904C21.0838 38.1681 21.2071 39.0132 21.3413 39.8547L15.8717 38.3893C13.9422 37.8743 11.951 39.0168 11.4287 40.9536C10.9064 42.8868 12.0598 44.8781 13.993 45.3968L19.3718 46.8368L10.4675 48.6575C9.68406 48.8172 8.94414 49.2235 8.37469 49.869C6.97104 51.4505 7.11612 53.8656 8.69751 55.2621C10.2789 56.6659 12.6981 56.521 14.0945 54.9396L20.1335 48.1279L18.69 53.5104C18.1677 55.4434 19.3174 57.4348 21.2543 57.9534C21.5698 58.0371 21.8854 58.0767 22.1973 58.0767C23.7968 58.0767 25.2621 57.0106 25.6973 55.3891L27.1699 49.8943C28.4974 50.9751 29.9664 51.8673 31.5949 52.4913L27.5907 56.4883C26.1725 57.9028 26.1725 60.1988 27.5907 61.6169C29.0088 63.035 31.3011 63.035 32.7192 61.6169L35.2799 59.0526H36.1939L33.7783 66.3028C33.5281 67.061 33.5063 67.9026 33.7783 68.7221C34.4457 70.7241 36.611 71.8086 38.6132 71.1377C40.6189 70.4705 41.6998 68.3084 41.0324 66.3028L38.6168 59.0526H39.5308L42.0951 61.6169C42.806 62.3241 43.7309 62.6793 44.6594 62.6793C45.5879 62.6793 46.5166 62.3241 47.2238 61.6169C48.6419 60.2024 48.6419 57.9064 47.2238 56.4883L43.2267 52.4876C44.8516 51.8636 46.3242 50.9715 47.6517 49.887L49.1241 55.3891C49.5594 57.0106 51.0212 58.0767 52.6242 58.0767C52.9362 58.0767 53.2518 58.0371 53.5675 57.9534C55.5005 57.4348 56.654 55.4471 56.1317 53.5104L54.6916 48.1422L60.7196 54.9396C61.2492 55.5377 61.9712 55.973 62.8127 56.1474C64.8801 56.5716 66.9037 55.2368 67.3247 53.1695C67.7489 51.1021 66.4141 49.0817 64.3468 48.6575ZM37.4054 46.3578C32.4037 46.3578 28.3378 42.292 28.3378 37.2904C28.3378 32.2887 32.4037 28.2228 37.4054 28.2228C42.407 28.2228 46.4729 32.2887 46.4729 37.2904C46.4729 42.292 42.407 46.3578 37.4054 46.3578Z" fill="black"/>
</svg>
