<svg width="163" height="163" viewBox="0 0 163 163" fill="none" xmlns="http://www.w3.org/2000/svg">
<path fill-rule="evenodd" clip-rule="evenodd" d="M35.505 76.5108C26.6231 78.5587 20 86.523 20 96C20 107.046 28.9897 116 40.0141 116H124.986C136.039 116 145 107.023 145 96C145 86.6128 138.507 78.7361 129.791 76.5824C129.929 75.5746 130 74.5457 130 73.5C130 61.0736 119.926 51 107.5 51C101.372 51 95.8167 53.4496 91.7591 57.4229C86.8043 47.677 76.6819 41 65 41C48.4315 41 35 54.4315 35 71C35 72.8825 35.1734 74.7244 35.505 76.5108ZM124.767 52.0956C124.921 50.9188 125 49.7187 125 48.5C125 33.3122 112.688 21 97.5 21C86.4859 21 76.9842 27.475 72.5936 36.826C70.1487 36.2852 67.6076 36 65 36C45.67 36 30 51.67 30 71C30 71.6908 30.02 72.3768 30.0595 73.0577C21.1983 76.908 15 85.7457 15 96C15 109.807 26.1625 121 39.9972 121H125.003C138.808 121 150 109.779 150 96C150 85.7417 143.838 76.9265 134.997 73.0726C134.868 64.5983 130.905 57.0536 124.767 52.0956ZM119.995 48.9958C119.998 48.831 120 48.6657 120 48.5C120 36.0736 109.926 26 97.5 26C88.7538 26 81.1731 30.9904 77.4501 38.2791C83.7172 40.6651 89.1218 44.7998 93.0677 50.087C97.2629 47.4955 102.207 46 107.5 46C111.999 46 116.246 47.0804 119.995 48.9958ZM52.5 126C51.1193 126 50 127.079 50 128.477V138.523C50 139.891 51.1597 141 52.5 141C53.8807 141 55 139.921 55 138.523V128.477C55 127.109 53.8403 126 52.5 126ZM67.5 136C66.1193 136 65 137.079 65 138.477V148.523C65 149.891 66.1597 151 67.5 151C68.8807 151 70 149.921 70 148.523V138.477C70 137.109 68.8403 136 67.5 136ZM82.5 126C81.1193 126 80 127.079 80 128.477V138.523C80 139.891 81.1597 141 82.5 141C83.8807 141 85 139.921 85 138.523V128.477C85 127.109 83.8403 126 82.5 126ZM97.5 136C96.1193 136 95 137.079 95 138.477V148.523C95 149.891 96.1597 151 97.5 151C98.8807 151 100 149.921 100 148.523V138.477C100 137.109 98.8403 136 97.5 136ZM112.5 126C111.119 126 110 127.079 110 128.477V138.523C110 139.891 111.16 141 112.5 141C113.881 141 115 139.921 115 138.523V128.477C115 127.109 113.84 126 112.5 126ZM97.5 1C96.1193 1 95 2.07876 95 3.47694V13.5231C95 14.891 96.1597 16 97.5 16C98.8807 16 100 14.9212 100 13.5231V3.47694C100 2.10897 98.8403 1 97.5 1ZM131.165 14.9446C130.189 13.9683 128.635 13.9396 127.646 14.9283L120.542 22.032C119.575 22.9993 119.611 24.6035 120.559 25.5512C121.535 26.5275 123.089 26.5562 124.078 25.5675L131.182 18.4638C132.149 17.4965 132.113 15.8924 131.165 14.9446ZM145.11 48.6099C145.11 47.2292 144.031 46.1099 142.633 46.1099H132.587C131.219 46.1099 130.11 47.2695 130.11 48.6099C130.11 49.9906 131.189 51.1099 132.587 51.1099H142.633C144.001 51.1099 145.11 49.9502 145.11 48.6099ZM63.8347 14.9446C62.8584 15.9209 62.8298 17.4752 63.8184 18.4638L70.9221 25.5675C71.8894 26.5348 73.4936 26.499 74.4413 25.5512C75.4177 24.5749 75.4463 23.0206 74.4576 22.032L67.354 14.9283C66.3867 13.961 64.7825 13.9968 63.8347 14.9446Z" fill="white"/>
</svg>
