<svg width="163" height="163" viewBox="0 0 163 163" fill="none" xmlns="http://www.w3.org/2000/svg">
<g clip-path="url(#clip0_101_27)">
<path d="M97.3844 108.197C99.0016 105.49 99.9859 102.361 99.9859 98.9859C99.9859 89.0719 91.9 80.9859 82.2391 80.9859C77.3875 80.9859 73.0281 82.9195 69.7938 86.0119C64.9563 77.6813 56.1813 71.7469 45.7469 71.7469C30.8406 71.7469 18.7469 83.8575 18.7469 98.7638C18.7469 99.3263 18.8883 99.8007 18.9235 100.363C8.3766 104.019 0.749097 113.97 0.749097 125.746C0.99865 140.653 13.0909 153 27.9972 153H95.2441C107.689 153 117.491 142.945 117.491 130.5C117.747 118.716 108.916 109.181 97.3844 108.197ZM159.963 92.925C133.806 97.9172 109.759 77.8444 109.759 51.4125C109.759 36.1547 117.662 22.1625 131.168 14.5969C133.242 13.4367 132.68 10.3444 130.395 9.91969C127.112 9.31641 123.822 9 120.278 9C90.4937 9 66.3063 33.1537 66.3063 63C66.3063 65.3906 66.482 67.7109 66.7984 70.0312C68.4508 71.2266 70.0666 72.5273 71.5094 74.0391C74.7156 72.7031 78.4 72 81.7469 72C96.6194 72 108.494 84.1303 108.494 99C108.494 100.02 108.423 101.039 108.318 102.023C114.961 105.047 120.235 110.32 123.365 116.789C138.659 115.84 152.53 108.563 161.924 96.9975C163.9 95.175 162.297 92.475 159.963 92.925Z" fill="white"/>
</g>
<defs>
<clipPath id="clip0_101_27">
<rect width="162" height="144" fill="white" transform="translate(1 9)"/>
</clipPath>
</defs>
</svg>
