<svg width="28" height="28" viewBox="0 0 28 28" fill="none" xmlns="http://www.w3.org/2000/svg">
<g clip-path="url(#clip0_30_112)">
<path d="M11.375 26.25H7.875C7.41106 26.2494 6.96631 26.0648 6.63825 25.7367C6.3102 25.4087 6.12563 24.9639 6.125 24.5V17.5H7.875V24.5H11.375V17.5H13.125V24.5C13.1244 24.9639 12.9398 25.4087 12.6117 25.7367C12.2837 26.0648 11.8389 26.2494 11.375 26.25Z" fill="#EAEAEA"/>
<path d="M21.875 17.5H20.3438L18.375 25.4021L16.443 17.5H14.875L17.0625 26.25H19.6875L21.875 17.5Z" fill="#EAEAEA"/>
<path d="M14.875 1.75H13.125V6.125H14.875V1.75Z" fill="#EAEAEA"/>
<path d="M22.0433 4.71937L18.9757 7.78697L20.2131 9.02429L23.2807 5.95668L22.0433 4.71937Z" fill="#EAEAEA"/>
<path d="M26.25 13.125H21.875V14.875H26.25V13.125Z" fill="#EAEAEA"/>
<path d="M6.125 13.125H1.75V14.875H6.125V13.125Z" fill="#EAEAEA"/>
<path d="M5.95669 4.71935L4.71938 5.95667L7.78698 9.02427L9.0243 7.78696L5.95669 4.71935Z" fill="#EAEAEA"/>
<path d="M19.25 14.875H17.5V14C17.5 13.0717 17.1313 12.1815 16.4749 11.5251C15.8185 10.8687 14.9283 10.5 14 10.5C13.0717 10.5 12.1815 10.8687 11.5251 11.5251C10.8687 12.1815 10.5 13.0717 10.5 14V14.875H8.75V14C8.75 12.6076 9.30312 11.2723 10.2877 10.2877C11.2723 9.30312 12.6076 8.75 14 8.75C15.3924 8.75 16.7277 9.30312 17.7123 10.2877C18.6969 11.2723 19.25 12.6076 19.25 14V14.875Z" fill="#EAEAEA"/>
</g>
<defs>
<clipPath id="clip0_30_112">
<rect width="28" height="28" fill="white"/>
</clipPath>
</defs>
</svg>
