<svg width="163" height="163" viewBox="0 0 163 163" fill="none" xmlns="http://www.w3.org/2000/svg">
<g clip-path="url(#clip0_101_27)">
<path d="M32 31H57V43.5H32V31ZM107 124.75H132V137.25H107V124.75ZM19.5 62.25H50.75V74.75H19.5V62.25ZM63.25 62.25H82V74.75H63.25V62.25ZM94.5 62.25H132V74.75H94.5V62.25ZM32 93.5H69.5V106H32V93.5ZM82 93.5H100.75V106H82V93.5ZM113.25 93.5H144.5V106H113.25V93.5ZM69.5 31H144.5V43.5H69.5V31ZM19.5 124.75H94.5V137.25H19.5V124.75Z" fill="white"/>
</g>
<defs>
<clipPath id="clip0_101_27">
<rect width="150" height="150" fill="white" transform="translate(7 6)"/>
</clipPath>
</defs>
</svg>
