<svg width="163" height="163" viewBox="0 0 163 163" fill="none" xmlns="http://www.w3.org/2000/svg">
<path d="M64.0087 113.999C64.5637 112.519 66.2287 111.779 67.7319 112.334C69.2119 112.889 69.975 114.554 69.42 116.034L65.8819 125.4C65.3269 126.88 63.6619 127.643 62.1819 127.065C60.6788 126.51 59.9388 124.845 60.4938 123.365L64.0087 113.999ZM120.11 114.022C120.665 112.542 122.307 111.779 123.81 112.334C125.29 112.889 126.053 114.554 125.498 116.034L119.046 133.424C118.491 134.904 116.826 135.667 115.346 135.112C113.843 134.557 113.08 132.892 113.635 131.412L120.11 114.022ZM44.8612 114.022C45.4162 112.542 47.0813 111.779 48.5613 112.334C50.0413 112.889 50.8044 114.554 50.2494 116.034L43.7975 133.424C43.2425 134.904 41.5775 135.667 40.0975 135.112C38.5944 134.557 37.8544 132.892 38.4094 131.412L44.8612 114.022ZM84.2431 114.022C84.7981 112.542 86.4631 111.779 87.9431 112.334C89.4463 112.889 90.1863 114.554 89.6313 116.034L83.1794 133.424C82.6244 134.904 80.9594 135.667 79.4794 135.112C77.9994 134.557 77.2363 132.892 77.7913 131.412L84.2431 114.022ZM102.836 113.999C103.414 112.519 105.079 111.779 106.559 112.334C108.039 112.889 108.802 114.554 108.247 116.034L104.732 125.4C104.154 126.88 102.489 127.643 101.009 127.065C99.5288 126.51 98.7656 124.845 99.3206 123.365L102.836 113.999Z" fill="#E0E9EF"/>
<path fill-rule="evenodd" clip-rule="evenodd" d="M35.9119 66.7087C36.1431 63.24 36.86 59.9331 38.0162 56.8113C36.8831 59.9331 36.1431 63.24 35.9119 66.7087ZM80.4275 34.7269C83.665 29.8937 89.1919 26.7025 95.4819 26.7025C104.639 26.7025 112.201 33.5012 113.404 42.3581C114.514 42.1962 115.624 42.1269 116.757 42.1269C130.747 42.1269 142.079 53.4581 142.079 67.4487C142.079 71.5419 141.107 75.4037 139.396 78.8031C137.5 77.8087 135.326 77.2306 133.014 77.2306C131.488 65.3213 121.289 56.1175 108.964 56.1175C107.484 56.1175 106.027 56.2562 104.593 56.5106C100.569 45.8731 91.5737 37.6637 80.4275 34.7269Z" fill="#E0E9EF"/>
<path fill-rule="evenodd" clip-rule="evenodd" d="M36.2588 104.634C25.7831 104.634 17.2962 96.1469 17.2962 85.6713C17.2962 75.3113 25.5981 66.8938 35.9119 66.7088C37.1606 48.1856 52.5619 33.5706 71.3625 33.5706C86.5556 33.5706 99.5287 43.0981 104.593 56.5106C106.027 56.2563 107.484 56.1175 108.964 56.1175C121.289 56.1175 131.488 65.3213 133.014 77.2306C140.576 77.2306 146.704 83.3819 146.704 90.9206C146.704 98.39 140.761 104.449 133.361 104.634C100.986 105.073 68.6106 104.634 36.2588 104.634Z" fill="white"/>
</svg>
