<svg width="163" height="163" viewBox="0 0 163 163" fill="none" xmlns="http://www.w3.org/2000/svg">
<g clip-path="url(#clip0_101_27)">
<path d="M65.625 20.2066C66.3998 21.1481 66.8745 22.3003 66.9877 23.5144C67.1009 24.7284 66.8474 25.9485 66.26 27.017C61.671 35.4425 59.2745 44.8866 59.2909 54.4807C59.2909 86.3974 85.31 112.242 117.378 112.242C121.561 112.242 125.633 111.805 129.546 110.972C130.745 110.712 131.995 110.812 133.138 111.258C134.282 111.704 135.268 112.477 135.975 113.48C136.721 114.524 137.101 115.784 137.057 117.066C137.012 118.348 136.546 119.579 135.729 120.568C129.503 128.216 121.65 134.377 112.741 138.604C103.832 142.83 94.0914 145.016 84.2305 145C47.6386 145 18 115.52 18 79.1981C18 51.8614 34.7799 28.414 58.6718 18.4762C59.8619 17.9733 61.1831 17.87 62.4369 18.182C63.6907 18.4941 64.8094 19.2045 65.625 20.2066ZM56.5604 28.4061C47.3735 33.3339 39.6935 40.6587 34.3364 49.6021C28.9794 58.5454 26.1455 68.7731 26.1359 79.1981C26.1359 111.107 52.163 136.951 84.2305 136.951C91.9096 136.965 99.5151 135.455 106.607 132.509C113.698 129.563 120.135 125.241 125.545 119.79C122.87 120.124 120.148 120.291 117.378 120.291C80.7856 120.291 51.1549 90.8107 51.1549 54.4887C51.1549 45.2256 53.0758 36.4071 56.5604 28.4061Z" fill="white"/>
</g>
<defs>
<clipPath id="clip0_101_27">
<rect width="127" height="127" fill="white" transform="translate(18 18)"/>
</clipPath>
</defs>
</svg>
