<svg width="75" height="73" viewBox="0 0 75 73" fill="none" xmlns="http://www.w3.org/2000/svg">
<g clip-path="url(#clip0_121_25)">
<mask id="mask0_121_25" style="mask-type:luminance" maskUnits="userSpaceOnUse" x="0" y="4" width="75" height="67">
<path d="M75 4.1411H0.460121V70.3988H75V4.1411Z" fill="white"/>
</mask>
<g mask="url(#mask0_121_25)">
<path d="M44.8088 49.7839C45.5529 48.5383 46.0058 47.0986 46.0058 45.5457C46.0058 40.984 42.2853 37.2634 37.8401 37.2634C35.6077 37.2634 33.6019 38.1531 32.1137 39.576C29.8879 35.7429 25.8503 33.0124 21.0492 33.0124C14.1905 33.0124 8.62587 38.5847 8.62587 45.4435C8.62587 45.7023 8.69093 45.9206 8.70713 46.1793C3.85426 47.8615 0.344673 52.4402 0.344673 57.8586C0.459498 64.7176 6.02342 70.3988 12.8821 70.3988H43.824C49.5501 70.3988 54.0603 65.7722 54.0603 60.046C54.1781 54.6239 50.1147 50.2366 44.8088 49.7839ZM73.6026 42.7569C61.5672 45.0539 50.5026 35.818 50.5026 23.6561C50.5026 16.6356 54.139 10.1975 60.3534 6.71636C61.3077 6.18252 61.0491 4.75969 59.9977 4.56427C58.4871 4.28669 56.9733 4.1411 55.3426 4.1411C41.6382 4.1411 30.509 15.2548 30.509 28.9877C30.509 30.0877 30.5899 31.1553 30.7355 32.2229C31.4958 32.773 32.2392 33.3715 32.9031 34.0671C34.3783 33.4523 36.0736 33.1288 37.6136 33.1288C44.4568 33.1288 49.9205 38.7103 49.9205 45.5521C49.9205 46.0215 49.8879 46.4903 49.8396 46.9431C52.8962 48.3345 55.3228 50.7607 56.763 53.7373C63.8001 53.3006 70.1825 49.9523 74.5049 44.6307C75.4141 43.7922 74.6765 42.5498 73.6026 42.7569Z" fill="#1E212D"/>
</g>
</g>
<defs>
<clipPath id="clip0_121_25">
<rect width="75" height="75" fill="white"/>
</clipPath>
</defs>
</svg>
