<svg width="28" height="28" viewBox="0 0 28 28" fill="none" xmlns="http://www.w3.org/2000/svg">
<path d="M18.2547 12.475L15.0484 17.9172C14.8797 17.9172 14.7109 17.875 14.5 17.875C13.3188 17.875 12.3906 18.8031 12.3906 19.9844C12.3906 21.1656 13.3188 22.0938 14.5 22.0938C15.6812 22.0938 16.6094 21.1656 16.6094 19.9844C16.6094 19.3094 16.2719 18.7187 15.8078 18.3391L18.8875 13.1078C19.7313 14.0781 20.2797 15.3016 20.3641 16.6516C20.3641 16.8625 20.575 17.0312 20.7859 17.0312H22.2203C22.4312 17.0312 22.5578 16.9047 22.6422 16.7359C22.8531 16.0187 22.9375 15.2594 22.9375 14.5C22.9375 9.85938 19.1406 6.0625 14.5 6.0625C9.85938 6.0625 6.0625 9.85938 6.0625 14.5C6.0625 15.2594 6.14687 16.0187 6.35781 16.7359C6.4 16.9047 6.56875 17.0312 6.77969 17.0312H8.17188C8.38281 17.0312 8.59375 16.8625 8.59375 16.6516C8.80469 13.5297 11.3781 11.125 14.5 11.125C15.9344 11.125 17.2422 11.6313 18.2547 12.475ZM14.5 21.25C13.7828 21.25 13.2344 20.7016 13.2344 19.9844C13.2344 19.2672 13.7828 18.7188 14.5 18.7188C15.2172 18.7188 15.7656 19.2672 15.7656 19.9844C15.7656 20.7016 15.2172 21.25 14.5 21.25ZM11.8844 10.8297L10.6609 8.00313C10.6609 8.00313 10.6609 7.96094 10.6187 7.96094C11.6312 7.37031 12.8125 6.99063 14.0359 6.90625V10.2812C13.3187 10.3656 12.5594 10.5344 11.8844 10.8297ZM14.9219 10.2812V6.90625C16.1875 6.99063 17.3266 7.32812 18.3391 7.96094C18.3391 7.96094 18.3391 8.00313 18.2969 8.00313L17.0734 10.8297C16.4406 10.5344 15.6812 10.3656 14.9219 10.2812ZM21.925 16.1875H21.2078C21.0813 15.2172 20.7438 14.3313 20.2797 13.5297L21.7984 12.3906C22.0094 13.0656 22.0938 13.7406 22.0938 14.5C22.0938 15.0906 22.0094 15.6391 21.925 16.1875ZM21.5031 11.5891C21.4609 11.5891 21.4188 11.6313 21.4188 11.6313L19.7734 12.8547C19.6469 12.6859 19.4781 12.5172 19.3094 12.3484L19.9 11.3359C20.0266 11.125 19.9422 10.8719 19.7313 10.7453C19.5203 10.6188 19.2672 10.7031 19.1406 10.9141L18.6344 11.7578C18.3812 11.5469 18.0859 11.3781 17.8328 11.2094L19.0141 8.46719C20.1531 9.26875 20.9969 10.3234 21.5031 11.5891ZM7.79219 16.1875H7.075C6.94844 15.6391 6.90625 15.0906 6.90625 14.5C6.90625 13.7828 7.03281 13.0656 7.20156 12.3906L8.72031 13.5297C8.25625 14.3313 7.91875 15.2172 7.79219 16.1875ZM9.22656 12.8547L7.58125 11.6313C7.53906 11.5891 7.53906 11.5891 7.49687 11.5891C8.00312 10.3234 8.88906 9.26875 9.94375 8.425L11.125 11.1672C10.3656 11.6313 9.73281 12.1797 9.22656 12.8547Z" fill="white"/>
<path d="M24.625 22.5156H21.9672C24.1188 20.5328 25.4688 17.6641 25.4688 14.5C25.4688 8.46719 20.5328 3.53125 14.5 3.53125C14.0359 3.53125 13.5719 3.57344 13.1078 3.61562C12.7703 2.81406 12.0109 2.26562 11.125 2.26562H10.7031C9.775 2.26562 9.01562 3.025 9.01562 3.95312C9.01562 4.29063 9.14219 4.58594 9.35312 4.79688C8.88906 5.05 8.46719 5.30312 8.04531 5.64062H2.6875C2.43437 5.64062 2.26562 5.80937 2.26562 6.0625C2.26562 6.31563 2.43437 6.48438 2.6875 6.48438H7.03281C4.88125 8.46719 3.53125 11.3359 3.53125 14.5C3.53125 20.5328 8.46719 25.4688 14.5 25.4688C16.9047 25.4688 19.1406 24.6672 20.9547 23.3594H24.625C25.3422 23.3594 25.8906 23.9078 25.8906 24.625C25.8906 25.3422 25.3422 25.8906 24.625 25.8906H24.2031C23.7391 25.8906 23.3594 25.5109 23.3594 25.0469C23.3594 24.7937 23.5281 24.625 23.7812 24.625C24.0344 24.625 24.2031 24.4563 24.2031 24.2031C24.2031 23.95 24.0344 23.7812 23.7812 23.7812C23.0641 23.7812 22.5156 24.3297 22.5156 25.0469C22.5156 25.975 23.275 26.7344 24.2031 26.7344H24.625C25.8062 26.7344 26.7344 25.8062 26.7344 24.625C26.7344 23.4438 25.8062 22.5156 24.625 22.5156ZM10.2812 4.375C10.0281 4.375 9.85938 4.20625 9.85938 3.95312C9.85938 3.48906 10.2391 3.10938 10.7031 3.10938H11.125C11.5891 3.10938 12.0109 3.3625 12.2219 3.78437C11.5469 3.91094 10.9141 4.12187 10.2812 4.375ZM12.3484 4.58594C12.2641 5.17656 11.7578 5.64062 11.125 5.64062H9.60625C10.45 5.17656 11.3781 4.79688 12.3484 4.58594ZM14.5 24.625C8.93125 24.625 4.375 20.0687 4.375 14.5C4.375 11.2516 5.93594 8.34063 8.34062 6.48438H11.125C12.2641 6.48438 13.1922 5.59844 13.2344 4.45937C13.6562 4.41719 14.0781 4.375 14.5 4.375C20.0687 4.375 24.625 8.93125 24.625 14.5C24.625 17.7484 23.0641 20.6594 20.6594 22.5156H12.8125C12.5594 22.5156 12.3906 22.6844 12.3906 22.9375C12.3906 23.1906 12.5594 23.3594 12.8125 23.3594H19.3937C17.9594 24.1609 16.2719 24.625 14.5 24.625Z" fill="white"/>
</svg>
