<svg width="75" height="75" viewBox="0 0 75 75" fill="none" xmlns="http://www.w3.org/2000/svg">
<path d="M45.3125 9.375L42.1875 18.75L39.0625 9.375C38.4875 7.64688 39.4187 5.78438 41.1437 5.20938C42.8719 4.63125 44.7375 5.56563 45.3125 7.29063C45.5469 7.99688 45.5312 8.72187 45.3125 9.375Z" fill="#1E212D"/>
<path d="M62.075 18.9062L53.2344 23.3281L57.6563 14.4875C58.4719 12.8594 60.45 12.2031 62.075 13.0125C63.7031 13.8281 64.3594 15.8062 63.55 17.4344C63.2156 18.0969 62.6938 18.5969 62.075 18.9062Z" fill="#1E212D"/>
<path d="M67.1875 37.5L57.8125 34.375L67.1875 31.25C68.9156 30.6719 70.7781 31.6062 71.3563 33.3344C71.9313 35.0594 70.9969 36.9219 69.2688 37.5C68.5656 37.7344 67.8406 37.7156 67.1875 37.5Z" fill="#1E212D"/>
<path d="M26.7188 14.4875L31.1406 23.3281L22.3 18.9062C20.6719 18.0906 20.0125 16.1125 20.825 14.4875C21.6406 12.8594 23.6219 12.2031 25.2438 13.0125C25.9094 13.3469 26.4094 13.8687 26.7188 14.4875Z" fill="#1E212D"/>
<path d="M55.55 38.5688C55.9844 37.2437 56.25 35.8469 56.25 34.375C56.25 26.6219 49.9406 20.3125 42.1875 20.3125C38 20.3125 34.2594 22.1687 31.6969 25.0875C31.5438 25.0656 31.4094 25 31.25 25C25.7 25 20.7219 27.4375 17.2844 31.2844C16.5344 31.0344 15.8094 31.0156 15.1063 31.25C13.3781 31.8281 12.4438 33.6906 13.0188 35.4156C13.1969 35.9375 13.5125 36.35 13.8844 36.7C13 38.8781 12.5 41.2563 12.5 43.75C12.5 43.8813 12.5 44.0125 12.5063 44.1438C7.11562 45.5344 3.125 50.4344 3.125 56.25C3.125 63.1438 8.73438 68.75 15.625 68.75H50C58.6156 68.75 65.625 61.7406 65.625 53.125C65.625 46.4719 61.425 40.8156 55.55 38.5688ZM42.1875 26.5625C46.4969 26.5625 50 30.0656 50 34.375C50 35.5188 49.7 36.5813 49.2563 37.5594C48.15 37.625 47.0063 37.7906 45.7625 38.1469C44.1344 33.9188 40.75 30.6 36.4906 29.0688C37.9156 27.5375 39.9344 26.5625 42.1875 26.5625ZM50 62.5H15.625C12.175 62.5 9.375 59.6969 9.375 56.25C9.375 52.8031 12.175 50 15.3375 49.9813L19.7812 50.0313L19.0063 46.275C18.8344 45.4531 18.75 44.6 18.75 43.75C18.75 36.8563 24.3594 31.25 31.25 31.25C31.325 31.25 31.3906 31.2094 31.4656 31.2063C37.4156 31.3781 42.3875 35.6 43.4875 41.425C43.5844 41.6688 43.5563 41.8344 43.6063 42.0063C43.9906 43.3688 45.2219 44.2125 46.5625 44.2313C46.8938 44.2281 47.1781 44.2406 47.4656 44.1594C48.4406 43.8781 49.2438 43.75 50 43.75C55.1688 43.75 59.375 47.9563 59.375 53.125C59.375 58.2938 55.1688 62.5 50 62.5Z" fill="#1E212D"/>
</svg>
