<svg width="13" height="26" viewBox="0 0 13 26" fill="none" xmlns="http://www.w3.org/2000/svg">
<path fill-rule="evenodd" clip-rule="evenodd" d="M7.42856 0C5.8933 0 4.64284 1.25046 4.64284 2.78571V17.058C3.36345 17.9468 2.50912 19.4084 2.50912 21.0806C2.50912 23.7922 4.71694 26 7.42856 26C10.1402 26 12.348 23.7922 12.348 21.0806C12.348 19.4084 11.4937 17.9468 10.2143 17.058V2.78571C10.2143 1.25046 8.96381 0 7.42856 0ZM7.42856 0.928571C8.46544 0.928571 9.2857 1.74883 9.2857 2.78571V17.2765C9.28569 17.3561 9.30611 17.4343 9.34501 17.5037C9.38392 17.5731 9.43999 17.6313 9.50787 17.6728C10.6543 18.374 11.4194 19.6345 11.4194 21.0806C11.4194 23.2904 9.63845 25.0714 7.42856 25.0714C5.21867 25.0714 3.4377 23.2904 3.4377 21.0806C3.4377 19.6345 4.2028 18.374 5.34924 17.6728C5.41712 17.6313 5.4732 17.5731 5.5121 17.5037C5.55101 17.4343 5.57143 17.3561 5.57142 17.2765V2.78571C5.57142 1.74883 6.39167 0.928571 7.42856 0.928571Z" fill="black"/>
<path fill-rule="evenodd" clip-rule="evenodd" d="M7.42857 2.32141C7.30544 2.32141 7.18734 2.37033 7.10027 2.4574C7.0132 2.54447 6.96429 2.66256 6.96429 2.7857V18.4744C6.96729 18.4881 6.97091 18.5018 6.97515 18.5152C5.75591 18.7315 4.82239 19.8015 4.82239 21.0806C4.82239 22.5144 5.99472 23.6858 7.42855 23.6858C8.86239 23.6858 10.0347 22.5144 10.0347 21.0806C10.0347 19.8015 9.10119 18.7315 7.88195 18.5152C7.88621 18.5018 7.88984 18.4881 7.89286 18.4744V2.7857C7.89286 2.66256 7.84394 2.54447 7.75687 2.4574C7.6698 2.37033 7.55171 2.32141 7.42857 2.32141ZM7.42857 19.403C8.36057 19.403 9.10617 20.1486 9.10617 21.0805C9.10617 22.0125 8.36057 22.7572 7.42857 22.7572C6.49657 22.7572 5.75098 22.0125 5.75098 21.0805C5.75098 20.1486 6.49657 19.403 7.42857 19.403Z" fill="black"/>
<path fill-rule="evenodd" clip-rule="evenodd" d="M1.85714 2.32141C1.734 2.32141 1.61591 2.37033 1.52884 2.4574C1.44177 2.54447 1.39285 2.66256 1.39285 2.7857C1.39285 2.90883 1.44177 3.02693 1.52884 3.114C1.61591 3.20107 1.734 3.24998 1.85714 3.24998H2.78571C2.90885 3.24998 3.02694 3.20107 3.11401 3.114C3.20108 3.02693 3.25 2.90883 3.25 2.7857C3.25 2.66256 3.20108 2.54447 3.11401 2.4574C3.02694 2.37033 2.90885 2.32141 2.78571 2.32141H1.85714Z" fill="black"/>
<path fill-rule="evenodd" clip-rule="evenodd" d="M0.464286 4.17859C0.341149 4.17859 0.223056 4.2275 0.135986 4.31457C0.0489153 4.40165 0 4.51974 0 4.64287C0 4.76601 0.0489153 4.8841 0.135986 4.97117C0.223056 5.05824 0.341149 5.10716 0.464286 5.10716H2.78571C2.90885 5.10716 3.02694 5.05824 3.11401 4.97117C3.20108 4.8841 3.25 4.76601 3.25 4.64287C3.25 4.51974 3.20108 4.40165 3.11401 4.31457C3.02694 4.2275 2.90885 4.17859 2.78571 4.17859H0.464286Z" fill="black"/>
<path fill-rule="evenodd" clip-rule="evenodd" d="M1.85714 6.03571C1.734 6.03571 1.61591 6.08462 1.52884 6.17169C1.44177 6.25876 1.39285 6.37686 1.39285 6.49999C1.39285 6.62313 1.44177 6.74122 1.52884 6.82829C1.61591 6.91536 1.734 6.96428 1.85714 6.96428H2.78571C2.90885 6.96428 3.02694 6.91536 3.11401 6.82829C3.20108 6.74122 3.25 6.62313 3.25 6.49999C3.25 6.37686 3.20108 6.25876 3.11401 6.17169C3.02694 6.08462 2.90885 6.03571 2.78571 6.03571H1.85714Z" fill="black"/>
<path fill-rule="evenodd" clip-rule="evenodd" d="M0.464286 7.89288C0.341149 7.89288 0.223056 7.9418 0.135986 8.02887C0.0489153 8.11594 0 8.23403 0 8.35717C0 8.48031 0.0489153 8.5984 0.135986 8.68547C0.223056 8.77254 0.341149 8.82145 0.464286 8.82145H2.78571C2.90885 8.82145 3.02694 8.77254 3.11401 8.68547C3.20108 8.5984 3.25 8.48031 3.25 8.35717C3.25 8.23403 3.20108 8.11594 3.11401 8.02887C3.02694 7.9418 2.90885 7.89288 2.78571 7.89288H0.464286Z" fill="black"/>
<path fill-rule="evenodd" clip-rule="evenodd" d="M1.85714 9.75C1.734 9.75 1.61591 9.79892 1.52884 9.88599C1.44177 9.97306 1.39285 10.0911 1.39285 10.2143C1.39285 10.3374 1.44177 10.4555 1.52884 10.5426C1.61591 10.6297 1.734 10.6786 1.85714 10.6786H2.78571C2.90885 10.6786 3.02694 10.6297 3.11401 10.5426C3.20108 10.4555 3.25 10.3374 3.25 10.2143C3.25 10.0911 3.20108 9.97306 3.11401 9.88599C3.02694 9.79892 2.90885 9.75 2.78571 9.75H1.85714Z" fill="black"/>
<path fill-rule="evenodd" clip-rule="evenodd" d="M0.464286 11.6071C0.341149 11.6071 0.223056 11.656 0.135986 11.7431C0.0489153 11.8302 0 11.9483 0 12.0714C0 12.1945 0.0489153 12.3126 0.135986 12.3997C0.223056 12.4868 0.341149 12.5357 0.464286 12.5357H2.78571C2.90885 12.5357 3.02694 12.4868 3.11401 12.3997C3.20108 12.3126 3.25 12.1945 3.25 12.0714C3.25 11.9483 3.20108 11.8302 3.11401 11.7431C3.02694 11.656 2.90885 11.6071 2.78571 11.6071H0.464286Z" fill="black"/>
<path fill-rule="evenodd" clip-rule="evenodd" d="M1.85714 13.4643C1.734 13.4643 1.61591 13.5132 1.52884 13.6003C1.44177 13.6874 1.39285 13.8054 1.39285 13.9286C1.39285 14.0517 1.44177 14.1698 1.52884 14.2569C1.61591 14.344 1.734 14.3929 1.85714 14.3929H2.78571C2.90885 14.3929 3.02694 14.344 3.11401 14.2569C3.20108 14.1698 3.25 14.0517 3.25 13.9286C3.25 13.8054 3.20108 13.6874 3.11401 13.6003C3.02694 13.5132 2.90885 13.4643 2.78571 13.4643H1.85714Z" fill="black"/>
<path fill-rule="evenodd" clip-rule="evenodd" d="M0.464286 15.3214C0.341149 15.3214 0.223056 15.3703 0.135986 15.4574C0.0489153 15.5445 0 15.6626 0 15.7857C0 15.9088 0.0489153 16.0269 0.135986 16.114C0.223056 16.2011 0.341149 16.25 0.464286 16.25H2.78571C2.90885 16.25 3.02694 16.2011 3.11401 16.114C3.20108 16.0269 3.25 15.9088 3.25 15.7857C3.25 15.6626 3.20108 15.5445 3.11401 15.4574C3.02694 15.3703 2.90885 15.3214 2.78571 15.3214H0.464286Z" fill="black"/>
</svg>
