<svg width="163" height="163" viewBox="0 0 163 163" fill="none" xmlns="http://www.w3.org/2000/svg">
<g clip-path="url(#clip0_101_27)">
<path d="M99.1441 72.6602C97.2514 62.4883 88.3639 54.75 77.6111 54.75C74.2372 54.75 71.0552 55.5703 68.2024 56.9375C63.4295 50.3477 55.6941 46 46.8889 46C32.3507 46 20.5556 57.7578 20.5556 72.25C20.5556 72.3867 20.6104 72.5508 20.6104 72.6875C10.5708 74.6836 3 83.5156 3 94.125C3 106.211 12.8201 116 24.9444 116H95.1667C107.291 116 117.111 106.211 117.111 94.125C117.111 83.4062 109.376 74.5195 99.1441 72.6602ZM158.778 72.1953C139.467 75.832 121.747 61.1758 121.747 41.8984C121.747 30.7969 127.754 20.5703 137.519 15.0742C139.028 14.2266 138.644 11.957 136.943 11.6563C134.557 11.2188 132.116 11 129.674 11C108.306 11 90.9698 27.7344 90.0646 48.707C97.3885 51.9609 103.286 57.9492 106.221 65.5781C116.398 69.4883 123.777 78.5391 125.477 89.3125C126.876 89.4492 128.22 89.7227 129.647 89.7227C141.908 89.7227 153.127 84.1992 160.534 75.1484C161.686 73.8359 160.479 71.8672 158.778 72.1953ZM102.984 125.324C100.9 124.148 98.2115 124.832 97.0045 126.965L86.9649 144.465C85.758 146.57 86.4986 149.223 88.6108 150.426C89.2965 150.809 90.0372 151 90.7778 151C92.2865 151 93.7677 150.207 94.5906 148.785L104.63 131.285C105.81 129.18 105.097 126.527 102.984 125.324ZM76.651 125.324C74.5663 124.148 71.8781 124.832 70.6712 126.965L60.6316 144.465C59.4247 146.57 60.1653 149.223 62.2774 150.426C62.9632 150.809 63.7038 151 64.4444 151C65.9531 151 67.4344 150.207 68.2573 148.785L78.2969 131.285C79.4764 129.18 78.7632 126.527 76.651 125.324ZM50.3177 125.324C48.233 124.148 45.5448 124.832 44.3378 126.965L34.2983 144.465C33.0913 146.57 33.8319 149.223 35.9441 150.426C36.6299 150.809 37.3705 151 38.1111 151C39.6198 151 41.101 150.207 41.924 148.785L51.9635 131.285C53.1431 129.18 52.4299 126.527 50.3177 125.324ZM23.9844 125.324C21.8997 124.148 19.2115 124.832 18.0045 126.965L7.96493 144.465C6.75799 146.57 7.49861 149.223 9.61076 150.426C10.2965 150.809 11.0372 151 11.7778 151C13.2865 151 14.7677 150.207 15.5906 148.785L25.6302 131.285C26.8097 129.18 26.0965 126.527 23.9844 125.324Z" fill="white"/>
</g>
<defs>
<clipPath id="clip0_101_27">
<rect width="158" height="140" fill="white" transform="translate(3 11)"/>
</clipPath>
</defs>
</svg>
