<svg width="163" height="163" viewBox="0 0 163 163" fill="none" xmlns="http://www.w3.org/2000/svg">
<path d="M163 105.568C163 123.368 148.404 137.795 130.4 137.795H36.675C16.4273 137.795 0 121.555 0 101.539C0 85.728 10.2384 72.2832 24.5009 67.3233C24.478 66.6435 24.45 65.9637 24.45 65.2839C24.45 43.0245 42.6831 25 65.2 25C80.3055 25 93.4703 33.1071 100.525 45.1923C104.396 42.6242 109.083 41.1136 114.1 41.1136C127.598 41.1136 138.55 51.9399 138.55 65.2839C138.55 68.3556 137.961 71.3038 136.918 73.9928C151.794 76.9662 163 89.983 163 105.568Z" fill="white"/>
</svg>
