<svg width="28" height="31" viewBox="0 0 28 31" fill="none" xmlns="http://www.w3.org/2000/svg">
<path d="M13.125 12.6285C15.5412 12.6285 17.5 10.5594 17.5 8.00704C17.5 5.45467 15.5412 3.38556 13.125 3.38556C10.7088 3.38556 8.75 5.45467 8.75 8.00704" stroke="#EAEAEA" stroke-width="2" stroke-linecap="round"/>
<path d="M4.375 12.6285H13.125" stroke="#EAEAEA" stroke-width="2" stroke-linecap="round"/>
<path d="M5.25 20.0229H17.5" stroke="#EAEAEA" stroke-width="2" stroke-linecap="round"/>
<path d="M14.875 22.7958C14.875 24.3272 16.0503 25.5687 17.5 25.5687C18.9497 25.5687 20.125 24.3272 20.125 22.7958C20.125 21.2644 18.9497 20.0229 17.5 20.0229" stroke="#EAEAEA" stroke-width="2" stroke-linecap="round"/>
<path d="M21 16.3257C23.4163 16.3257 25.375 14.2566 25.375 11.7042C25.375 9.15185 23.4163 7.08275 21 7.08275C20.7407 7.08275 20.4867 7.10657 20.2399 7.15226" stroke="#EAEAEA" stroke-width="2" stroke-linecap="round"/>
<path d="M2.625 16.3257H21" stroke="#EAEAEA" stroke-width="2" stroke-linecap="round"/>
</svg>
