<svg width="30" height="30" viewBox="0 0 30 30" fill="none" xmlns="http://www.w3.org/2000/svg">
<g clip-path="url(#clip0_29_34)">
<path d="M28.4041 20.1599C26.931 21.7685 24.7035 21.5687 22.7172 21.6456C20.1765 21.7429 17.6359 21.7122 15.0901 21.7583C13.4323 21.7583 11.7796 21.661 10.1269 21.579C8.38698 21.4919 6.53411 21.579 4.85575 21.1333C2.7052 20.5595 0.513582 19.1455 0.934454 16.6352C1.12436 15.5184 1.50417 14.5194 2.56662 13.9354C3.93702 13.172 5.56918 13.0952 6.79074 14.2274C6.85661 14.2949 6.94508 14.336 7.0393 14.3427C7.13352 14.3494 7.22692 14.3213 7.30173 14.2637C7.37653 14.2061 7.42751 14.1231 7.44496 14.0304C7.46242 13.9378 7.44513 13.8419 7.39639 13.7612C5.45627 9.85226 9.55208 5.97409 13.2475 5.73843C16.6145 5.52326 20.0226 7.63397 19.884 11.3021C19.8871 11.3755 19.9109 11.4465 19.9526 11.5069C19.9944 11.5673 20.0524 11.6148 20.1201 11.6437C20.1877 11.6726 20.2621 11.6819 20.3348 11.6704C20.4074 11.6589 20.4753 11.6271 20.5307 11.5787C22.8352 9.52951 26.3408 12.1372 24.5957 14.8114C24.5597 14.8777 24.5438 14.9531 24.5499 15.0283C24.556 15.1035 24.5838 15.1753 24.63 15.235C24.6762 15.2947 24.7388 15.3397 24.8102 15.3645C24.8815 15.3894 24.9586 15.393 25.032 15.3749C26.3613 14.8626 27.8498 14.9907 28.8198 16.1639C29.7899 17.3371 29.2561 19.2019 28.4041 20.1599Z" fill="#F0F0F0"/>
<path d="M9.21299 9.32957C8.83436 10.0097 8.56913 10.7468 8.42771 11.512C8.34045 11.9936 9.07955 12.2036 9.17193 11.7169C9.29722 11.0224 9.5347 10.3528 9.8751 9.7343C10.1163 9.28347 9.45422 8.89924 9.21299 9.32957Z" fill="#F0F0F0"/>
<path d="M10.6193 10.0365C10.5324 9.98929 10.4305 9.9773 10.3349 10.0031C10.2394 10.0288 10.1574 10.0904 10.1061 10.1749C9.92255 10.597 9.76988 11.0319 9.64928 11.4761C9.62205 11.5746 9.63515 11.6799 9.68568 11.7688C9.73621 11.8576 9.82005 11.9228 9.91874 11.95C10.0174 11.9772 10.1229 11.9641 10.2119 11.9137C10.301 11.8632 10.3663 11.7796 10.3935 11.681C10.4945 11.2983 10.6232 10.9233 10.7784 10.5591C10.8233 10.4681 10.8318 10.3635 10.8023 10.2665C10.7727 10.1694 10.7073 10.0872 10.6193 10.0365Z" fill="#F0F0F0"/>
<path d="M11.574 23.5253C11.5756 23.5066 11.5756 23.4877 11.574 23.469V23.4126C11.5702 23.3719 11.5582 23.3323 11.5387 23.2963C11.5191 23.2603 11.4925 23.2287 11.4603 23.2033C11.4282 23.1779 11.3912 23.1593 11.3516 23.1486C11.312 23.1379 11.2707 23.1354 11.2301 23.1411C11.176 23.1349 11.1211 23.1408 11.0696 23.1586C11.0181 23.1763 10.9712 23.2053 10.9324 23.2435C10.3935 23.7558 9.4491 24.4526 9.42343 25.2928C9.40281 25.4518 9.41821 25.6134 9.46852 25.7656C9.51882 25.9179 9.60274 26.0569 9.71408 26.1725C9.82542 26.288 9.96133 26.3772 10.1118 26.4333C10.2623 26.4894 10.4234 26.5111 10.5834 26.4967C11.9949 26.3276 11.7382 24.5653 11.574 23.5253ZM10.84 25.5131C10.7579 25.6463 10.4551 25.8 10.296 25.6975C10.1369 25.595 10.1933 25.1852 10.296 25.0417C10.4544 24.7663 10.6573 24.5187 10.8965 24.3091C10.8965 24.4014 10.8965 24.4936 10.8965 24.5858C10.9572 24.8946 10.9378 25.2138 10.84 25.5131Z" fill="#F0F0F0"/>
<path d="M15.9726 23.5253C15.9743 23.5066 15.9743 23.4877 15.9726 23.469V23.4126C15.9688 23.3719 15.9568 23.3323 15.9373 23.2963C15.9177 23.2603 15.8911 23.2287 15.8589 23.2033C15.8268 23.1779 15.7898 23.1593 15.7502 23.1486C15.7107 23.1379 15.6693 23.1354 15.6287 23.1411C15.5746 23.1349 15.5197 23.1408 15.4682 23.1586C15.4167 23.1763 15.3698 23.2053 15.331 23.2435C14.7921 23.7558 13.8477 24.4526 13.8221 25.2928C13.8014 25.4518 13.8168 25.6134 13.8671 25.7656C13.9174 25.9179 14.0014 26.0569 14.1127 26.1725C14.224 26.288 14.36 26.3772 14.5104 26.4333C14.6609 26.4894 14.822 26.5111 14.982 26.4967C16.4243 26.3276 16.142 24.5653 15.9726 23.5253ZM15.2438 25.5131C15.1617 25.6463 14.8588 25.8 14.6997 25.6975C14.5406 25.595 14.5971 25.1852 14.6997 25.0417C14.8583 24.7663 15.0612 24.5188 15.3002 24.3091C15.3002 24.4014 15.3002 24.4936 15.3002 24.5858C15.361 24.8946 15.3416 25.2138 15.2438 25.5131Z" fill="#F0F0F0"/>
<path d="M8.21214 26.9679V26.9116C8.20837 26.8708 8.19635 26.8313 8.17682 26.7953C8.15728 26.7593 8.13062 26.7277 8.09847 26.7023C8.06631 26.6769 8.02933 26.6583 7.98976 26.6476C7.95019 26.6369 7.90885 26.6343 7.86825 26.6401C7.81412 26.6338 7.75927 26.6398 7.70775 26.6575C7.65623 26.6753 7.60935 26.7043 7.57056 26.7425C7.03164 27.2548 6.08725 27.9516 6.06158 28.7918C6.0458 28.9456 6.06357 29.1009 6.11368 29.2472C6.16378 29.3935 6.24503 29.5272 6.35184 29.6392C6.45865 29.7512 6.58848 29.8387 6.73241 29.8958C6.87634 29.9529 7.03095 29.9783 7.18562 29.9701C8.62275 29.8266 8.36098 28.0643 8.21214 27.0243C8.21378 27.0056 8.21378 26.9867 8.21214 26.9679ZM7.48844 29.0172C7.40632 29.1504 7.1035 29.3041 6.94439 29.2016C6.78528 29.0991 6.84174 28.6893 6.94439 28.5459C7.10293 28.2704 7.30581 28.0229 7.5449 27.8133C7.5449 27.9055 7.5449 27.9977 7.5449 28.0899C7.60058 28.3963 7.57762 28.7118 7.47818 29.0069L7.48844 29.0172Z" fill="#F0F0F0"/>
<path d="M12.9187 26.9679V26.9116C12.915 26.8708 12.9029 26.8313 12.8834 26.7953C12.8639 26.7593 12.8372 26.7277 12.805 26.7023C12.7729 26.6769 12.7359 26.6583 12.6963 26.6476C12.6568 26.6369 12.6154 26.6343 12.5748 26.6401C12.5207 26.6338 12.4658 26.6398 12.4143 26.6575C12.3628 26.6753 12.3159 26.7043 12.2771 26.7425C11.7382 27.2548 10.7938 27.9516 10.7682 28.7918C10.7475 28.9508 10.7629 29.1123 10.8132 29.2646C10.8635 29.4169 10.9475 29.5559 11.0588 29.6715C11.1701 29.787 11.3061 29.8761 11.4565 29.9323C11.607 29.9884 11.7682 30.0101 11.9281 29.9957C13.3653 29.8522 13.1035 28.0899 12.9546 27.0499C12.9466 27.021 12.9345 26.9934 12.9187 26.9679ZM12.195 29.0172C12.1129 29.1504 11.8101 29.3041 11.651 29.2016C11.4919 29.0991 11.5483 28.6893 11.651 28.5459C11.8094 28.2704 12.0123 28.0228 12.2515 27.8133C12.2515 27.9055 12.2515 27.9977 12.2515 28.0899C12.3121 28.395 12.2945 28.7105 12.2002 29.0069L12.195 29.0172Z" fill="#F0F0F0"/>
<path d="M17.6407 26.9679V26.9116C17.6369 26.8708 17.6249 26.8313 17.6054 26.7953C17.5858 26.7593 17.5592 26.7277 17.527 26.7023C17.4949 26.6769 17.4579 26.6583 17.4183 26.6476C17.3787 26.6369 17.3374 26.6343 17.2968 26.6401C17.2427 26.6338 17.1878 26.6398 17.1363 26.6575C17.0848 26.6753 17.0379 26.7043 16.9991 26.7425C16.4602 27.2548 15.5158 27.9516 15.4901 28.7918C15.4695 28.9508 15.4849 29.1123 15.5352 29.2646C15.5855 29.4169 15.6695 29.5559 15.7808 29.6715C15.8921 29.787 16.028 29.8761 16.1785 29.9323C16.329 29.9884 16.4901 30.0101 16.6501 29.9957C18.0872 29.8522 17.8255 28.0899 17.6766 27.0499C17.6685 27.0211 17.6564 26.9935 17.6407 26.9679ZM16.917 29.0172C16.8349 29.1504 16.5321 29.3041 16.373 29.2016C16.2138 29.0991 16.2703 28.6893 16.373 28.5459C16.5196 28.2694 16.7103 28.0185 16.9375 27.803C16.9375 27.8952 16.9375 27.9874 16.9375 28.0797C17.0167 28.3837 17.0167 28.7029 16.9375 29.0069L16.917 29.0172Z" fill="#F0F0F0"/>
<path d="M7.18564 23.5253C7.18731 23.5066 7.18731 23.4877 7.18564 23.469V23.4075C7.18187 23.3667 7.16986 23.3272 7.15032 23.2912C7.13078 23.2552 7.10412 23.2236 7.07197 23.1982C7.03982 23.1728 7.00283 23.1542 6.96326 23.1435C6.92369 23.1328 6.88235 23.1302 6.84176 23.1359C6.78762 23.1297 6.73277 23.1357 6.68125 23.1534C6.62973 23.1712 6.58285 23.2002 6.54407 23.2384C6.00514 23.7507 5.06075 24.4475 5.03508 25.2876C5.01851 25.4418 5.03569 25.5978 5.08543 25.7447C5.13518 25.8916 5.2163 26.026 5.3232 26.1385C5.4301 26.2511 5.56021 26.3391 5.70454 26.3965C5.84887 26.4539 6.00397 26.4794 6.15912 26.4711C7.59112 26.3276 7.33449 24.5653 7.18564 23.5253ZM5.91276 25.6975C5.70232 25.5592 5.81011 25.1852 5.91276 25.0417C6.07122 24.7662 6.27411 24.5187 6.51327 24.3091C6.51327 24.4013 6.51327 24.4936 6.51327 24.5858C6.57568 24.8942 6.55802 25.2134 6.46195 25.5131C6.35416 25.6463 6.05134 25.7948 5.89736 25.6924L5.91276 25.6975Z" fill="#F0F0F0"/>
<path d="M24.775 23.469V23.4126C24.7712 23.3719 24.7592 23.3323 24.7397 23.2963C24.7201 23.2603 24.6935 23.2287 24.6613 23.2033C24.6292 23.1779 24.5922 23.1593 24.5526 23.1486C24.513 23.1379 24.4717 23.1354 24.4311 23.1411C24.377 23.1349 24.3221 23.1408 24.2706 23.1586C24.2191 23.1763 24.1722 23.2053 24.1334 23.2435C23.5945 23.7558 22.6501 24.4526 22.6244 25.2928C22.6038 25.4518 22.6192 25.6134 22.6695 25.7656C22.7198 25.9179 22.8037 26.0569 22.9151 26.1725C23.0264 26.288 23.1623 26.3772 23.3128 26.4333C23.4632 26.4894 23.6244 26.5111 23.7844 26.4967C25.2215 26.3532 24.9598 24.5909 24.8109 23.5509C24.8028 23.5221 24.7907 23.4945 24.775 23.469ZM24.0513 25.5182C23.9692 25.6514 23.6663 25.8051 23.5072 25.7026C23.3481 25.6002 23.4046 25.1903 23.5072 25.0469C23.6658 24.7714 23.8687 24.5239 24.1077 24.3143C24.1077 24.4065 24.1077 24.4987 24.1077 24.5909C24.1676 24.8981 24.1482 25.2154 24.0513 25.5131V25.5182Z" fill="#F0F0F0"/>
<path d="M22.3627 26.9679V26.9116C22.3589 26.8708 22.3469 26.8313 22.3274 26.7953C22.3079 26.7593 22.2812 26.7277 22.249 26.7023C22.2169 26.6769 22.1799 26.6583 22.1403 26.6476C22.1008 26.6369 22.0594 26.6343 22.0188 26.6401C21.9647 26.6338 21.9098 26.6398 21.8583 26.6575C21.8068 26.6753 21.7599 26.7043 21.7211 26.7425C21.1822 27.2548 20.2378 27.9516 20.2122 28.7918C20.1915 28.9508 20.2069 29.1123 20.2572 29.2646C20.3075 29.4169 20.3915 29.5559 20.5028 29.6715C20.6141 29.787 20.7501 29.8761 20.9005 29.9323C21.051 29.9884 21.2121 30.0101 21.3721 29.9957C22.8093 29.8522 22.5475 28.0899 22.3986 27.0499C22.3905 27.0211 22.3784 26.9935 22.3627 26.9679ZM21.639 29.0172C21.5569 29.1504 21.2541 29.3041 21.095 29.2016C20.9359 29.0991 20.9923 28.6893 21.095 28.5459C21.2534 28.2704 21.4563 28.0228 21.6955 27.8133C21.6955 27.9055 21.6955 27.9977 21.6955 28.0899C21.7561 28.395 21.7385 28.7105 21.6442 29.0069L21.639 29.0172Z" fill="#F0F0F0"/>
<path d="M20.3764 23.5253C20.378 23.5066 20.378 23.4877 20.3764 23.469V23.4126C20.3726 23.3719 20.3606 23.3323 20.341 23.2963C20.3215 23.2603 20.2948 23.2287 20.2627 23.2033C20.2305 23.1779 20.1936 23.1593 20.154 23.1486C20.1144 23.1379 20.0731 23.1354 20.0325 23.1411C19.9783 23.1349 19.9235 23.1408 19.872 23.1586C19.8204 23.1763 19.7736 23.2053 19.7348 23.2435C19.1959 23.7558 18.2515 24.4526 18.2258 25.2928C18.2052 25.4518 18.2206 25.6134 18.2709 25.7656C18.3212 25.9179 18.4051 26.0569 18.5164 26.1725C18.6278 26.288 18.7637 26.3772 18.9142 26.4333C19.0646 26.4894 19.2258 26.5111 19.3858 26.4967C20.8024 26.3276 20.5303 24.5653 20.3764 23.5253ZM19.6475 25.5131C19.5654 25.6463 19.2626 25.8 19.1035 25.6975C18.9444 25.595 19.0008 25.1852 19.1035 25.0417C19.262 24.7663 19.4649 24.5188 19.704 24.3091C19.704 24.4014 19.704 24.4936 19.704 24.5858C19.7647 24.8946 19.7453 25.2138 19.6475 25.5131Z" fill="#F0F0F0"/>
</g>
<defs>
<clipPath id="clip0_29_34">
<rect width="30" height="30" fill="white"/>
</clipPath>
</defs>
</svg>
