<svg width="75" height="75" viewBox="0 0 75 75" fill="none" xmlns="http://www.w3.org/2000/svg">
<mask id="mask0_124_18" style="mask-type:luminance" maskUnits="userSpaceOnUse" x="8" y="8" width="59" height="59">
<path d="M66.7178 8.28221H8.28221V66.7178H66.7178V8.28221Z" fill="white"/>
</mask>
<g mask="url(#mask0_124_18)">
<path d="M30.1955 9.29752C30.5521 9.73073 30.7705 10.2609 30.8226 10.8195C30.8746 11.3781 30.758 11.9395 30.4877 12.4311C28.3762 16.3079 27.2735 20.6534 27.2811 25.0678C27.2811 39.7534 39.2531 51.6451 54.0083 51.6451C55.933 51.6451 57.8066 51.444 59.6071 51.0607C60.1587 50.9411 60.7339 50.9871 61.2598 51.1923C61.7862 51.3976 62.2399 51.7532 62.5652 52.2147C62.9084 52.6951 63.0833 53.2749 63.063 53.8647C63.0423 54.4546 62.8279 55.021 62.452 55.4761C59.5873 58.9951 55.9739 61.8299 51.8747 63.7749C47.7755 65.7193 43.2936 66.7252 38.7564 66.7178C21.9196 66.7178 8.28221 53.1534 8.28221 36.4408C8.28221 23.8626 16.003 13.0739 26.9962 8.50133C27.5438 8.26993 28.1517 8.2224 28.7286 8.36596C29.3055 8.50956 29.8203 8.83643 30.1955 9.29752ZM26.0247 13.0703C21.7976 15.3377 18.2639 18.708 15.799 22.8231C13.3341 26.9381 12.0301 31.6441 12.0257 36.4408C12.0257 51.1229 24.0014 63.0143 38.7564 63.0143C42.2897 63.0207 45.7892 62.3259 49.0523 60.9704C52.315 59.6149 55.2768 57.6262 57.7661 55.1181C56.5353 55.2718 55.2828 55.3486 54.0083 55.3486C37.1713 55.3486 23.5375 41.7841 23.5375 25.0715C23.5375 20.8093 24.4214 16.7517 26.0247 13.0703Z" fill="#1E212D"/>
</g>
</svg>
