<svg width="75" height="75" viewBox="0 0 75 75" fill="none" xmlns="http://www.w3.org/2000/svg">
<g clip-path="url(#clip0_32_381)">
<path d="M75 46.5742C75 54.7644 68.284 61.4026 60 61.4026H16.875C7.55857 61.4026 0 53.9302 0 44.7204C0 37.4454 4.71092 31.2591 11.2734 28.977C11.2629 28.6642 11.25 28.3514 11.25 28.0386C11.25 17.7965 19.6395 9.50307 30 9.50307C36.9504 9.50307 43.0078 13.2333 46.2538 18.794C48.035 17.6124 50.1916 16.9173 52.5 16.9173C58.7107 16.9173 63.75 21.8987 63.75 28.0386C63.75 29.452 63.479 30.8085 62.9991 32.0458C69.8439 33.4139 75 39.4032 75 46.5742Z" fill="#1E212D"/>
</g>
<defs>
<clipPath id="clip0_32_381">
<rect width="75" height="75" fill="white"/>
</clipPath>
</defs>
</svg>
