<svg width="163" height="163" viewBox="0 0 163 163" fill="none" xmlns="http://www.w3.org/2000/svg">
<path d="M110.981 108.375C109.154 108.375 107.663 106.889 107.663 105.063C107.663 103.857 109.375 100.652 110.981 98.0696C112.583 100.652 114.292 103.857 114.292 105.063C114.292 106.89 112.807 108.375 110.981 108.375ZM78.4059 111.116C78.2067 111.34 78.1586 111.658 78.2835 111.934C78.4033 112.205 78.6732 112.377 78.9726 112.377H87.3901L52.2942 150.007L73.0917 120.072C73.2545 119.842 73.2727 119.54 73.1425 119.292C73.011 119.042 72.7529 118.886 72.473 118.886H57.0963L76.944 95.1802H92.512L78.4059 111.116ZM119.527 92.6218H37.0985C23.4037 92.6218 12.2634 81.4828 12.2634 67.7867C12.2634 55.0283 21.8182 44.4095 34.4915 43.0887L35.6288 42.8218V41.6711C35.6288 27.9789 46.7731 16.8347 60.4666 16.8347C69.8556 16.8347 78.3343 22.0538 82.601 30.4527L83.08 31.3973L84.0976 31.1001C86.3791 30.4357 88.7057 30.1021 91.0142 30.1021C100.037 30.1021 108.362 35.0148 112.747 42.9225L113.214 43.7574L114.141 43.5491C130.072 40.0383 144.366 52.3298 144.366 67.7836C144.366 81.4828 133.224 92.6218 119.527 92.6218ZM146.007 60.9091C142.524 47.5845 129.253 38.1182 114.514 40.871C109.571 32.627 100.655 27.5437 91.0142 27.5437C88.8042 27.5437 86.5791 27.8214 84.393 28.3686C82.5979 25.1376 80.2153 22.3753 77.43 20.165C80.5112 15.2765 85.923 12 92.1085 12C98.6849 12 104.623 15.6544 107.614 21.5353L108.093 22.4799L109.112 22.184C116.955 19.9055 125.322 23.5105 129.175 30.4657L129.636 31.3005L130.566 31.0949C141.765 28.6454 151.737 37.2478 151.737 48.0674C151.732 53.1629 149.514 57.732 146.007 60.9091Z" fill="white"/>
<path d="M50.375 111.997C50.375 109.209 46.3496 103.075 45.5381 101.872L44.5349 100.378L43.5291 101.872C42.7251 103.075 38.6918 109.209 38.6918 111.997C38.6918 115.212 41.3144 117.838 44.5319 117.838C47.7576 117.841 50.375 115.212 50.375 111.997Z" fill="white"/>
<path d="M90.9621 123.696C90.8315 123.696 90.7091 123.756 90.6262 123.86L78.0969 138.823C77.985 138.954 77.9603 139.136 78.0332 139.29C78.1074 139.443 78.2623 139.542 78.4358 139.542H87.4838L72.3584 161.307C72.2243 161.497 72.2647 161.755 72.4404 161.903C72.5237 161.968 72.6192 162 72.7181 162C72.8357 162 72.9555 161.951 73.0388 161.862L98.336 134.738C98.4558 134.607 98.4896 134.418 98.4172 134.259C98.3469 134.097 98.1881 133.998 98.0132 133.998H93.0783L101.551 124.43C101.666 124.3 101.692 124.112 101.622 123.956C101.551 123.794 101.393 123.695 101.223 123.695H90.9621V123.696Z" fill="white"/>
</svg>
