<svg width="27" height="30" viewBox="0 0 27 30" fill="none" xmlns="http://www.w3.org/2000/svg">
<path fill-rule="evenodd" clip-rule="evenodd" d="M13.0368 3.87351C12.9676 3.71842 12.8191 3.61949 12.6562 3.61949C12.4934 3.61949 12.3449 3.71842 12.2757 3.87351C12.2757 3.87351 7.17188 15.2401 7.17188 20.1083C7.17188 23.3053 9.62972 25.9016 12.6562 25.9016C15.6828 25.9016 18.1406 23.3053 18.1406 20.1083C18.1406 15.2401 13.0368 3.87351 13.0368 3.87351ZM12.6562 5.12131C11.4851 7.8219 8.01562 16.1536 8.01562 20.1083C8.01562 22.8142 10.0946 25.0103 12.6562 25.0103C15.2179 25.0103 17.2969 22.8142 17.2969 20.1083C17.2969 16.1536 13.8274 7.8219 12.6562 5.12131Z" fill="#EAEAEA"/>
<path fill-rule="evenodd" clip-rule="evenodd" d="M20.6305 2.98223C20.5613 2.82714 20.4128 2.72821 20.25 2.72821C20.0872 2.72821 19.9387 2.82714 19.8695 2.98223C19.8695 2.98223 17.7188 7.79784 17.7188 9.85849C17.7188 11.3345 18.8527 12.5323 20.25 12.5323C21.6472 12.5323 22.7812 11.3345 22.7812 9.85849C22.7812 7.79784 20.6305 2.98223 20.6305 2.98223ZM20.25 4.2425C19.6526 5.66143 18.5625 8.44313 18.5625 9.85849C18.5625 10.8425 19.3185 11.6411 20.25 11.6411C21.1815 11.6411 21.9375 10.8425 21.9375 9.85849C21.9375 8.44313 20.8474 5.66143 20.25 4.2425Z" fill="#EAEAEA"/>
<path fill-rule="evenodd" clip-rule="evenodd" d="M4.59928 19.9166C4.53009 19.7616 4.38159 19.6626 4.21875 19.6626C4.05591 19.6626 3.90741 19.7616 3.83822 19.9166C3.83822 19.9166 2.53125 22.8606 2.53125 24.1191C2.53125 25.103 3.28725 25.9016 4.21875 25.9016C5.15025 25.9016 5.90625 25.103 5.90625 24.1191C5.90625 22.8606 4.59928 19.9166 4.59928 19.9166ZM4.21875 21.1894C3.85931 22.0736 3.375 23.3971 3.375 24.1191C3.375 24.611 3.753 25.0103 4.21875 25.0103C4.6845 25.0103 5.0625 24.611 5.0625 24.1191C5.0625 23.3971 4.57819 22.0736 4.21875 21.1894Z" fill="#EAEAEA"/>
<path fill-rule="evenodd" clip-rule="evenodd" d="M18.9894 21.8231C18.9894 21.8231 18.5692 24.6627 15.8591 25.9399C15.6465 26.0407 15.5512 26.3045 15.6457 26.5291C15.741 26.7537 15.9908 26.8544 16.2034 26.7546C19.3514 25.2706 19.8231 21.9586 19.8231 21.9586C19.8585 21.7153 19.6999 21.488 19.4704 21.4505C19.24 21.4131 19.0249 21.5807 18.9894 21.8231Z" fill="#EAEAEA"/>
</svg>
