<svg width="163" height="163" viewBox="0 0 163 163" fill="none" xmlns="http://www.w3.org/2000/svg">
<path d="M98.4792 20.375L91.6875 40.75L84.8958 20.375C83.6462 16.6192 85.6701 12.5714 89.4191 11.3217C93.1749 10.0653 97.2295 12.096 98.4792 15.845C98.9885 17.3799 98.9546 18.9555 98.4792 20.375Z" fill="white"/>
<path d="M134.91 41.0896L115.696 50.6998L125.306 31.4862C127.079 27.9477 131.378 26.5215 134.91 28.2805C138.448 30.0531 139.874 34.3523 138.115 37.8907C137.389 39.3305 136.254 40.4172 134.91 41.0896Z" fill="white"/>
<path d="M146.021 81.5L125.646 74.7083L146.021 67.9167C149.777 66.6602 153.824 68.6909 155.081 72.4467C156.331 76.1957 154.3 80.2435 150.544 81.5C149.016 82.0094 147.44 81.9686 146.021 81.5Z" fill="white"/>
<path d="M58.0687 31.4862L67.6789 50.6998L48.4653 41.0896C44.9269 39.317 43.4938 35.0178 45.2597 31.4862C47.0323 27.9477 51.3382 26.5215 54.8631 28.2805C56.3097 29.0072 57.3964 30.1414 58.0687 31.4862Z" fill="white"/>
<path d="M120.729 83.8228C121.673 80.9431 122.25 77.9072 122.25 74.7083C122.25 57.8582 108.538 44.1458 91.6875 44.1458C82.5867 44.1458 74.457 48.1801 68.8879 54.5235C68.5551 54.476 68.263 54.3333 67.9167 54.3333C55.8547 54.3333 45.0355 59.6308 37.5647 67.9914C35.9347 67.4481 34.359 67.4073 32.8309 67.9167C29.0751 69.1731 27.0444 73.221 28.2941 76.97C28.6812 78.1042 29.3672 79.0007 30.1754 79.7613C28.2533 84.4951 27.1667 89.6636 27.1667 95.0833C27.1667 95.3686 27.1667 95.6538 27.1802 95.9391C15.4646 98.9614 6.79166 109.611 6.79166 122.25C6.79166 137.232 18.9827 149.417 33.9583 149.417H108.667C127.391 149.417 142.625 134.183 142.625 115.458C142.625 100.999 133.497 88.706 120.729 83.8228ZM91.6875 57.7292C101.053 57.7292 108.667 65.3426 108.667 74.7083C108.667 77.1941 108.015 79.5033 107.05 81.6291C104.646 81.7717 102.16 82.1316 99.4572 82.9059C95.9187 73.7168 88.5633 66.504 79.3063 63.1761C82.4033 59.8482 86.7907 57.7292 91.6875 57.7292ZM108.667 135.833H33.9583C26.4603 135.833 20.375 129.741 20.375 122.25C20.375 114.759 26.4603 108.667 33.3335 108.626L42.9912 108.735L41.3069 100.571C40.9334 98.7848 40.75 96.9307 40.75 95.0833C40.75 80.1009 52.941 67.9167 67.9167 67.9167C68.0797 67.9167 68.2223 67.8284 68.3853 67.8216C81.3166 68.1951 92.1222 77.3707 94.5128 90.0303C94.7234 90.5601 94.6622 90.9201 94.7709 91.2936C95.6063 94.2548 98.2822 96.0885 101.196 96.1293C101.916 96.1225 102.534 96.1496 103.159 95.9731C105.278 95.3618 107.023 95.0833 108.667 95.0833C119.9 95.0833 129.042 104.225 129.042 115.458C129.042 126.692 119.9 135.833 108.667 135.833Z" fill="white"/>
</svg>
