<svg width="28" height="28" viewBox="0 0 28 28" fill="none" xmlns="http://www.w3.org/2000/svg">
<g clip-path="url(#clip0_30_24)">
<path d="M26.25 20.125H19.25V21.875H26.25V20.125Z" fill="#EAEAEA"/>
<path d="M8.75 20.125H1.75V21.875H8.75V20.125Z" fill="#EAEAEA"/>
<path d="M22.7054 16.625C22.2644 12.2097 18.529 8.75 14 8.75C9.471 8.75 5.73475 12.2097 5.29463 16.625H0V18.375H10.5V16.625H7.06038C7.4935 13.1775 10.437 10.5 14 10.5C17.563 10.5 20.5065 13.1775 20.9396 16.625H17.5V18.375H28V16.625H22.7054Z" fill="#EAEAEA"/>
<path d="M11.375 23.625H3.5V25.375H11.375V23.625Z" fill="#EAEAEA"/>
<path d="M24.5 23.625H16.625V25.375H24.5V23.625Z" fill="#EAEAEA"/>
<path d="M17.2436 19.5064L14.6186 16.8814C14.2765 16.5393 13.7235 16.5393 13.3814 16.8814L10.7564 19.5064L11.9936 20.7436L13.125 19.6123V28H14.875V19.6123L16.0064 20.7436L17.2436 19.5064Z" fill="#EAEAEA"/>
<path d="M14.875 0H13.125V1.75H14.875V0Z" fill="#EAEAEA"/>
<path d="M4.71933 6.98145L3.4819 8.21887L5.95737 10.6943L7.1948 9.45692L4.71933 6.98145Z" fill="#EAEAEA"/>
<path d="M1.4553 11.2238L0.771576 12.8346L3.99413 14.2024L4.67786 12.5915L1.4553 11.2238Z" fill="#EAEAEA"/>
<path d="M2.24544 4.50634L1.00784 5.74359L2.24509 6.98119L3.48269 5.74394L2.24544 4.50634Z" fill="#EAEAEA"/>
<path d="M23.2805 6.98086L20.8051 9.45633L22.0425 10.6938L24.5179 8.21829L23.2805 6.98086Z" fill="#EAEAEA"/>
<path d="M25.7555 4.50672L24.518 5.74414L25.7555 6.98157L26.9929 5.74414L25.7555 4.50672Z" fill="#EAEAEA"/>
<path d="M14.875 3.5H13.125V7H14.875V3.5Z" fill="#EAEAEA"/>
<path d="M9.56616 4.19201L7.94437 4.84706L9.25512 8.09226L10.8769 7.43721L9.56616 4.19201Z" fill="#EAEAEA"/>
<path d="M26.5447 11.2225L23.3221 12.5903L24.0058 14.2011L27.2284 12.8334L26.5447 11.2225Z" fill="#EAEAEA"/>
<path d="M18.4344 4.19113L17.1229 7.43633L18.7447 8.09172L20.0562 4.84652L18.4344 4.19113Z" fill="#EAEAEA"/>
</g>
<defs>
<clipPath id="clip0_30_24">
<rect width="28" height="28" fill="white"/>
</clipPath>
</defs>
</svg>
