<svg width="28" height="28" viewBox="0 0 28 28" fill="none" xmlns="http://www.w3.org/2000/svg">
<g clip-path="url(#clip0_30_62)">
<path d="M26.25 20.125H16.625V21.875H26.25V20.125Z" fill="#EAEAEA"/>
<path d="M11.375 20.125H1.75V21.875H11.375V20.125Z" fill="#EAEAEA"/>
<path d="M22.7054 16.625C22.2644 12.2097 18.529 8.75 14 8.75C9.47013 8.75 5.73475 12.2097 5.29463 16.625H0V18.375H11.375V16.625H7.06038C7.4935 13.1775 10.437 10.5 14 10.5C17.563 10.5 20.5065 13.1775 20.9396 16.625H16.625V18.375H28V16.625H22.7054Z" fill="#EAEAEA"/>
<path d="M9.625 23.625H3.5V25.375H9.625V23.625Z" fill="#EAEAEA"/>
<path d="M24.5 23.625H18.375V25.375H24.5V23.625Z" fill="#EAEAEA"/>
<path d="M14.875 25.0128V16.625H13.125V25.0128L11.9936 23.8814L10.7564 25.1186L13.3814 27.7436C13.552 27.9143 13.776 28 14 28C14.224 28 14.448 27.9143 14.6186 27.7436L17.2436 25.1186L16.0064 23.8814L14.875 25.0128Z" fill="#EAEAEA"/>
<path d="M14.875 0H13.125V1.75H14.875V0Z" fill="#EAEAEA"/>
<path d="M4.7195 6.9819L3.4819 8.21915L5.9564 10.6943L7.194 9.4571L4.7195 6.9819Z" fill="#EAEAEA"/>
<path d="M1.4559 11.2236L0.772003 12.8345L3.99375 14.2023L4.67765 12.5914L1.4559 11.2236Z" fill="#EAEAEA"/>
<path d="M2.24544 4.50634L1.00784 5.74359L2.24509 6.98119L3.48269 5.74394L2.24544 4.50634Z" fill="#EAEAEA"/>
<path d="M23.2805 6.98086L20.8051 9.45633L22.0425 10.6938L24.5179 8.21829L23.2805 6.98086Z" fill="#EAEAEA"/>
<path d="M25.7554 4.50672L24.518 5.74414L25.7554 6.98157L26.9929 5.74414L25.7554 4.50672Z" fill="#EAEAEA"/>
<path d="M14.875 3.5H13.125V7H14.875V3.5Z" fill="#EAEAEA"/>
<path d="M9.56758 4.19094L7.94498 4.84666L9.25643 8.09186L10.879 7.43614L9.56758 4.19094Z" fill="#EAEAEA"/>
<path d="M26.5447 11.2225L23.3221 12.5903L24.0059 14.2011L27.2284 12.8334L26.5447 11.2225Z" fill="#EAEAEA"/>
<path d="M18.4344 4.19113L17.1229 7.43633L18.7447 8.09172L20.0562 4.84652L18.4344 4.19113Z" fill="#EAEAEA"/>
</g>
<defs>
<clipPath id="clip0_30_62">
<rect width="28" height="28" fill="white"/>
</clipPath>
</defs>
</svg>
