<svg width="163" height="163" viewBox="0 0 163 163" fill="none" xmlns="http://www.w3.org/2000/svg">
<path d="M139.847 105.749L120.479 101.784L132.169 98.6623C136.371 97.535 138.87 93.2232 137.742 89.0059C136.623 84.8044 132.311 82.3056 128.086 83.4328L116.199 86.6096C116.491 84.7887 116.759 82.952 116.759 81.0444C116.759 79.1368 116.491 77.2922 116.199 75.4713L128.102 78.6559C128.788 78.8372 129.474 78.9239 130.151 78.9239C133.628 78.9239 136.82 76.5985 137.758 73.0828C138.885 68.8813 136.387 64.5537 132.185 63.4265L120.495 60.2971L139.847 56.3399C141.55 55.9931 143.158 55.1102 144.396 53.715C147.438 50.2781 147.131 45.0282 143.694 41.9855C140.257 38.9428 135.007 39.2502 131.964 42.6871L118.855 57.4593L121.993 45.8007C123.128 41.5992 120.629 37.2716 116.428 36.1365C112.242 35.0172 107.898 37.5002 106.763 41.7017L103.555 53.6598C100.67 51.3029 97.4775 49.3716 93.9461 48.0079L102.633 39.3211C105.715 36.239 105.715 31.2571 102.633 28.175C99.5507 25.0928 94.5688 25.0928 91.4867 28.175L82.926 36.7356L89.177 17.9826C89.7209 16.3351 89.7682 14.5063 89.177 12.7248C87.7266 8.37357 83.0206 6.01664 78.6694 7.47494C74.3181 8.92536 71.9691 13.6235 73.4116 17.9826L79.6626 36.7356L71.102 28.175C68.0198 25.0928 63.0379 25.0928 59.9558 28.175C56.8736 31.2571 56.8736 36.239 59.9558 39.3211L68.6426 48.0079C65.119 49.3716 61.9186 51.3108 59.0335 53.6598L55.841 41.7175C54.7138 37.5081 50.3468 35.0014 46.1926 36.1365C41.9832 37.2637 39.4844 41.5756 40.6116 45.785L43.7332 57.4908L30.6321 42.6949C29.4812 41.4022 27.9125 40.4484 26.0759 40.07C21.5827 39.1477 17.192 42.0407 16.2698 46.5338C15.3475 51.027 18.2483 55.4255 22.7494 56.3478L42.0935 60.3128L30.4271 63.4344C26.2256 64.5616 23.7268 68.8813 24.854 73.0907C25.7921 76.6143 28.9767 78.9318 32.4609 78.9318C33.1388 78.9318 33.8246 78.8451 34.5104 78.6638L46.3975 75.4792C46.0901 77.3001 45.8221 79.1446 45.8221 81.0444C45.8221 82.952 46.0901 84.7887 46.3817 86.6175L34.4946 83.4328C30.301 82.3135 25.9734 84.7966 24.8383 89.0059C23.7032 93.2074 26.2099 97.535 30.4114 98.6623L42.1014 101.792L22.7494 105.749C21.0467 106.096 19.4386 106.979 18.201 108.382C15.1504 111.819 15.4657 117.068 18.9026 120.103C22.3394 123.154 27.5972 122.839 30.6321 119.402L43.7568 104.598L40.6195 116.296C39.4844 120.497 41.9832 124.825 46.1926 125.952C46.8784 126.134 47.5642 126.22 48.2421 126.22C51.7183 126.22 54.903 123.903 55.8489 120.379L59.0493 108.437C61.9344 110.786 65.1269 112.725 68.6662 114.081L59.9637 122.768C56.8815 125.842 56.8815 130.832 59.9637 133.914C63.0458 136.996 68.0277 136.996 71.1098 133.914L76.675 128.341H78.6615L73.4116 144.098C72.8677 145.746 72.8204 147.575 73.4116 149.356C74.862 153.707 79.568 156.064 83.9193 154.606C88.2784 153.156 90.6275 148.457 89.177 144.098L83.9271 128.341H85.9136L91.4867 133.914C93.0317 135.451 95.0418 136.223 97.0598 136.223C99.0777 136.223 101.096 135.451 102.633 133.914C105.715 130.84 105.715 125.85 102.633 122.768L93.9461 114.073C97.4775 112.717 100.678 110.778 103.563 108.421L106.763 120.379C107.709 123.903 110.886 126.22 114.37 126.22C115.048 126.22 115.734 126.134 116.42 125.952C120.621 124.825 123.128 120.505 121.993 116.296L118.863 104.629L131.964 119.402C133.115 120.702 134.684 121.648 136.513 122.027C141.006 122.949 145.404 120.048 146.319 115.555C147.241 111.062 144.34 106.671 139.847 105.749ZM81.2943 100.751C70.424 100.751 61.5875 91.9146 61.5875 81.0444C61.5875 70.1741 70.424 61.3376 81.2943 61.3376C92.1646 61.3376 101.001 70.1741 101.001 81.0444C101.001 91.9146 92.1646 100.751 81.2943 100.751Z" fill="black"/>
</svg>
