<svg width="45" height="50" viewBox="0 0 45 50" fill="none" xmlns="http://www.w3.org/2000/svg">
<g clip-path="url(#clip0_32_393)">
<path d="M42.6063 33.5998C40.3967 36.2809 37.0554 35.9479 34.0759 36.076C30.265 36.2382 26.454 36.187 22.6354 36.2638C20.1486 36.2638 17.6696 36.1016 15.1905 35.965C12.5806 35.8198 9.80132 35.965 7.28378 35.2221C4.05795 34.2658 0.770525 31.9092 1.40183 27.7254C1.68669 25.864 2.25641 24.199 3.85008 23.2256C5.90568 21.9534 8.35393 21.8253 10.1863 23.7123C10.2851 23.8249 10.4178 23.8933 10.5591 23.9045C10.7004 23.9156 10.8405 23.8688 10.9527 23.7728C11.0649 23.6769 11.1414 23.5385 11.1676 23.3841C11.1938 23.2296 11.1678 23.0699 11.0947 22.9353C8.18455 16.4204 14.3283 9.95682 19.8715 9.56405C24.9219 9.20544 30.034 12.7233 29.8261 18.8368C29.8307 18.9591 29.8664 19.0774 29.9291 19.1782C29.9918 19.2789 30.0788 19.3579 30.1802 19.4061C30.2817 19.4543 30.3933 19.4698 30.5023 19.4506C30.6113 19.4315 30.7132 19.3785 30.7962 19.2979C34.253 15.8825 39.5113 20.2286 36.8937 24.6857C36.8397 24.7962 36.8158 24.9218 36.8249 25.0471C36.8341 25.1724 36.8758 25.2921 36.9452 25.3916C37.0145 25.4911 37.1084 25.5661 37.2154 25.6075C37.3225 25.6489 37.438 25.655 37.5481 25.6249C39.5421 24.7711 41.7748 24.9845 43.2299 26.9398C44.685 28.8951 43.8843 32.0031 42.6063 33.5998Z" fill="#1E212D"/>
<path d="M13.8195 15.5493C13.2516 16.6829 12.8537 17.9114 12.6416 19.1867C12.5107 19.9893 13.6193 20.3394 13.7579 19.5282C13.9458 18.3707 14.3021 17.2547 14.8127 16.2238C15.1745 15.4724 14.1813 14.8321 13.8195 15.5493Z" fill="#1E212D"/>
<path d="M15.929 16.7276C15.7986 16.6488 15.6458 16.6288 15.5024 16.6718C15.359 16.7147 15.2361 16.8173 15.1591 16.9581C14.8838 17.6617 14.6548 18.3866 14.4739 19.1269C14.4331 19.2911 14.4527 19.4665 14.5285 19.6146C14.6043 19.7627 14.7301 19.8714 14.8781 19.9167C15.0261 19.962 15.1843 19.9402 15.3179 19.8561C15.4514 19.7721 15.5494 19.6326 15.5903 19.4684C15.7418 18.8305 15.9347 18.2055 16.1677 17.5985C16.235 17.4468 16.2477 17.2725 16.2034 17.1108C16.1591 16.949 16.061 16.812 15.929 16.7276Z" fill="#1E212D"/>
<path d="M17.361 39.2088C17.3634 39.1776 17.3634 39.1462 17.361 39.1149V39.021C17.3554 38.9531 17.3373 38.8871 17.308 38.8272C17.2787 38.7672 17.2387 38.7145 17.1905 38.6722C17.1423 38.6299 17.0868 38.5989 17.0274 38.581C16.9681 38.5632 16.9061 38.5589 16.8452 38.5685C16.764 38.5581 16.6817 38.568 16.6044 38.5976C16.5272 38.6271 16.4568 38.6755 16.3987 38.7392C15.5903 39.5931 14.1737 40.7543 14.1352 42.1546C14.1042 42.4196 14.1273 42.6889 14.2028 42.9427C14.2783 43.1965 14.4041 43.4282 14.5712 43.6208C14.7382 43.8134 14.942 43.9619 15.1677 44.0554C15.3934 44.149 15.6352 44.1851 15.8751 44.1611C17.9923 43.8794 17.6074 40.9421 17.361 39.2088ZM16.2601 42.5218C16.1369 42.7438 15.6827 42.9999 15.444 42.8291C15.2053 42.6584 15.29 41.9753 15.444 41.7362C15.6817 41.2771 15.986 40.8645 16.3448 40.5152C16.3448 40.6689 16.3448 40.8226 16.3448 40.9763C16.4359 41.491 16.4067 42.0231 16.2601 42.5218Z" fill="#1E212D"/>
<path d="M23.9589 39.2088C23.9614 39.1776 23.9614 39.1462 23.9589 39.1149V39.021C23.9533 38.9531 23.9353 38.8871 23.906 38.8272C23.8766 38.7672 23.8367 38.7145 23.7884 38.6722C23.7402 38.6299 23.6847 38.5989 23.6254 38.581C23.566 38.5632 23.504 38.5589 23.4431 38.5685C23.3619 38.5581 23.2796 38.568 23.2024 38.5976C23.1251 38.6271 23.0548 38.6755 22.9966 38.7392C22.1882 39.5931 20.7716 40.7543 20.7331 42.1546C20.7022 42.4196 20.7253 42.6889 20.8007 42.9427C20.8762 43.1965 21.0021 43.4282 21.1691 43.6208C21.3361 43.8134 21.54 43.9619 21.7656 44.0554C21.9913 44.149 22.2331 44.1851 22.4731 44.1611C24.6364 43.8794 24.213 40.9421 23.9589 39.2088ZM22.8657 42.5218C22.7425 42.7438 22.2883 42.9999 22.0496 42.8291C21.8109 42.6584 21.8956 41.9753 22.0496 41.7362C22.2874 41.2772 22.5918 40.8647 22.9504 40.5152C22.9504 40.6689 22.9504 40.8226 22.9504 40.9763C23.0415 41.491 23.0124 42.0231 22.8657 42.5218Z" fill="#1E212D"/>
<path d="M12.3182 44.9466V44.8527C12.3126 44.7847 12.2946 44.7188 12.2653 44.6589C12.2359 44.5989 12.196 44.5462 12.1477 44.5038C12.0995 44.4615 12.044 44.4305 11.9847 44.4127C11.9253 44.3949 11.8633 44.3906 11.8024 44.4001C11.7212 44.3897 11.6389 44.3997 11.5617 44.4293C11.4844 44.4588 11.4141 44.5072 11.3559 44.5709C10.5475 45.4247 9.1309 46.586 9.0924 47.9863C9.06873 48.2426 9.09539 48.5016 9.17055 48.7454C9.24571 48.9892 9.36758 49.2121 9.52779 49.3987C9.688 49.5853 9.88275 49.7312 10.0986 49.8264C10.3145 49.9216 10.5465 49.9638 10.7785 49.9501C12.9341 49.711 12.5415 46.7738 12.3182 45.0405C12.3207 45.0093 12.3207 44.9778 12.3182 44.9466ZM11.2327 48.362C11.1095 48.584 10.6553 48.8401 10.4166 48.6694C10.1779 48.4986 10.2626 47.8155 10.4166 47.5764C10.6544 47.1174 10.9587 46.7049 11.3174 46.3554C11.3174 46.5091 11.3174 46.6628 11.3174 46.8165C11.4009 47.3272 11.3665 47.853 11.2173 48.3449L11.2327 48.362Z" fill="#1E212D"/>
<path d="M19.3781 44.9466V44.8527C19.3724 44.7847 19.3544 44.7188 19.3251 44.6589C19.2958 44.5989 19.2558 44.5462 19.2076 44.5038C19.1593 44.4615 19.1039 44.4305 19.0445 44.4127C18.9852 44.3949 18.9231 44.3906 18.8623 44.4001C18.7811 44.3897 18.6988 44.3997 18.6215 44.4293C18.5442 44.4588 18.4739 44.5072 18.4157 44.5709C17.6073 45.4247 16.1907 46.586 16.1522 47.9863C16.1213 48.2513 16.1444 48.5206 16.2199 48.7744C16.2953 49.0281 16.4212 49.2598 16.5882 49.4524C16.7552 49.645 16.9591 49.7936 17.1848 49.8871C17.4105 49.9806 17.6522 50.0168 17.8922 49.9928C20.0479 49.7537 19.6552 46.8165 19.432 45.0832C19.4199 45.0351 19.4018 44.9891 19.3781 44.9466ZM18.2925 48.362C18.1694 48.584 17.7151 48.8401 17.4765 48.6694C17.2378 48.4986 17.3225 47.8155 17.4765 47.5764C17.7142 47.1173 18.0185 46.7047 18.3772 46.3554C18.3772 46.5091 18.3772 46.6628 18.3772 46.8165C18.4682 47.325 18.4417 47.8508 18.3002 48.3449L18.2925 48.362Z" fill="#1E212D"/>
<path d="M26.4611 44.9466V44.8527C26.4554 44.7847 26.4374 44.7188 26.4081 44.6589C26.3788 44.5989 26.3388 44.5462 26.2906 44.5038C26.2423 44.4615 26.1869 44.4305 26.1275 44.4127C26.0681 44.3949 26.0061 44.3906 25.9452 44.4001C25.864 44.3897 25.7818 44.3997 25.7045 44.4293C25.6272 44.4588 25.5569 44.5072 25.4987 44.5709C24.6903 45.4247 23.2737 46.586 23.2352 47.9863C23.2043 48.2513 23.2274 48.5206 23.3029 48.7744C23.3783 49.0281 23.5042 49.2598 23.6712 49.4524C23.8382 49.645 24.0421 49.7936 24.2678 49.8871C24.4935 49.9806 24.7352 50.0168 24.9752 49.9928C27.1309 49.7537 26.7382 46.8165 26.515 45.0832C26.5028 45.0351 26.4847 44.9891 26.4611 44.9466ZM25.3755 48.362C25.2523 48.584 24.7981 48.8401 24.5594 48.6694C24.3208 48.4986 24.4055 47.8155 24.5594 47.5764C24.7794 47.1156 25.0655 46.6975 25.4063 46.3384C25.4063 46.492 25.4063 46.6457 25.4063 46.7994C25.525 47.3062 25.525 47.8381 25.4063 48.3449L25.3755 48.362Z" fill="#1E212D"/>
<path d="M10.7785 39.2088C10.781 39.1776 10.781 39.1462 10.7785 39.1149V39.0124C10.7728 38.9445 10.7548 38.8786 10.7255 38.8186C10.6962 38.7587 10.6562 38.7059 10.608 38.6636C10.5597 38.6213 10.5042 38.5903 10.4449 38.5725C10.3855 38.5547 10.3235 38.5504 10.2626 38.5599C10.1814 38.5495 10.0992 38.5595 10.0219 38.589C9.9446 38.6186 9.87428 38.667 9.8161 38.7307C9.00772 39.5845 7.59112 40.7458 7.55263 42.1461C7.52776 42.4031 7.55353 42.663 7.62815 42.9078C7.70277 43.1527 7.82446 43.3767 7.9848 43.5642C8.14514 43.7518 8.34031 43.8985 8.55681 43.9942C8.77331 44.0899 9.00596 44.1323 9.23868 44.1184C11.3867 43.8794 11.0017 40.9421 10.7785 39.2088ZM8.86914 42.8291C8.55348 42.5986 8.71516 41.9753 8.86914 41.7362C9.10683 41.2771 9.41117 40.8645 9.76991 40.5152C9.76991 40.6689 9.76991 40.8226 9.76991 40.9763C9.86353 41.4903 9.83702 42.0223 9.69292 42.5218C9.53124 42.7438 9.07701 42.9914 8.84604 42.8206L8.86914 42.8291Z" fill="#1E212D"/>
<path d="M37.1625 39.1149V39.021C37.1568 38.9531 37.1388 38.8871 37.1095 38.8272C37.0802 38.7672 37.0402 38.7145 36.992 38.6722C36.9438 38.6299 36.8883 38.5989 36.8289 38.581C36.7696 38.5632 36.7076 38.5589 36.6467 38.5685C36.5655 38.5581 36.4832 38.568 36.4059 38.5976C36.3286 38.6271 36.2583 38.6755 36.2001 38.7392C35.3918 39.5931 33.9752 40.7543 33.9367 42.1546C33.9057 42.4196 33.9288 42.6889 34.0043 42.9427C34.0797 43.1965 34.2056 43.4282 34.3726 43.6208C34.5396 43.8134 34.7435 43.9619 34.9692 44.0554C35.1949 44.149 35.4366 44.1851 35.6766 44.1611C37.8323 43.9221 37.4397 40.9848 37.2164 39.2515C37.2042 39.2034 37.1861 39.1575 37.1625 39.1149ZM36.077 42.5303C35.9538 42.7523 35.4995 43.0085 35.2609 42.8377C35.0222 42.6669 35.1069 41.9838 35.2609 41.7448C35.4987 41.2857 35.803 40.8732 36.1616 40.5238C36.1616 40.6775 36.1616 40.8311 36.1616 40.9848C36.2514 41.4968 36.2223 42.0257 36.077 42.5218V42.5303Z" fill="#1E212D"/>
<path d="M33.5441 44.9466V44.8527C33.5384 44.7847 33.5204 44.7188 33.4911 44.6589C33.4618 44.5989 33.4218 44.5462 33.3736 44.5038C33.3253 44.4615 33.2699 44.4305 33.2105 44.4127C33.1511 44.3949 33.0891 44.3906 33.0282 44.4001C32.947 44.3897 32.8648 44.3997 32.7875 44.4293C32.7102 44.4588 32.6399 44.5072 32.5817 44.5709C31.7733 45.4247 30.3567 46.586 30.3182 47.9863C30.2873 48.2513 30.3104 48.5206 30.3859 48.7744C30.4613 49.0281 30.5872 49.2598 30.7542 49.4524C30.9212 49.645 31.1251 49.7936 31.3508 49.8871C31.5765 49.9806 31.8182 50.0168 32.0582 49.9928C34.2139 49.7537 33.8212 46.8165 33.598 45.0832C33.5858 45.0351 33.5677 44.9891 33.5441 44.9466ZM32.4585 48.362C32.3353 48.584 31.8811 48.8401 31.6424 48.6694C31.4038 48.4986 31.4885 47.8155 31.6424 47.5764C31.8801 47.1173 32.1845 46.7047 32.5432 46.3554C32.5432 46.5091 32.5432 46.6628 32.5432 46.8165C32.6342 47.325 32.6077 47.8508 32.4662 48.3449L32.4585 48.362Z" fill="#1E212D"/>
<path d="M30.5646 39.2088C30.567 39.1776 30.567 39.1462 30.5646 39.1149V39.021C30.5589 38.9531 30.5409 38.8871 30.5116 38.8272C30.4823 38.7672 30.4423 38.7145 30.3941 38.6722C30.3458 38.6299 30.2904 38.5989 30.231 38.581C30.1716 38.5632 30.1096 38.5589 30.0487 38.5685C29.9675 38.5581 29.8853 38.568 29.808 38.5976C29.7307 38.6271 29.6604 38.6755 29.6022 38.7392C28.7938 39.5931 27.3772 40.7543 27.3387 42.1546C27.3078 42.4196 27.3309 42.6889 27.4064 42.9427C27.4818 43.1965 27.6077 43.4282 27.7747 43.6208C27.9417 43.8134 28.1456 43.9619 28.3713 44.0554C28.597 44.149 28.8387 44.1851 29.0787 44.1611C31.2036 43.8794 30.7955 40.9421 30.5646 39.2088ZM29.4713 42.5218C29.3481 42.7438 28.8939 42.9999 28.6552 42.8291C28.4166 42.6584 28.5013 41.9753 28.6552 41.7362C28.8931 41.2772 29.1974 40.8647 29.556 40.5152C29.556 40.6689 29.556 40.8226 29.556 40.9763C29.6471 41.491 29.618 42.0231 29.4713 42.5218Z" fill="#1E212D"/>
</g>
<defs>
<clipPath id="clip0_32_393">
<rect width="45" height="50" fill="white"/>
</clipPath>
</defs>
</svg>
